<?xml version="1.0" encoding="utf-8"?>
<!-- Generator: Adobe Illustrator 23.0.3, SVG Export Plug-In . SVG Version: 6.00 Build 0)  -->
<svg version="1.1" id="Layer_1" xmlns="http://www.w3.org/2000/svg" xmlns:xlink="http://www.w3.org/1999/xlink" x="0px" y="0px"
	 viewBox="0 0 163.3 163.3" style="enable-background:new 0 0 163.3 163.3;" xml:space="preserve">
<style type="text/css">
	.st0{display:none;}
	.st1{display:inline;fill:#1B1B1B;}
	.st2{display:inline;}
	.st3{fill:#1B1B1B;}
	.st4{display:inline;fill:#FFFFFF;}
</style>
<g id="IT" class="st0">
	<path class="st1" d="M116.9,118.4H46.4c-0.9,0-1.6-0.7-1.6-1.6V46.4c0-0.9,0.7-1.6,1.6-1.6h70.4c0.9,0,1.6,0.7,1.6,1.6v70.4
		C118.4,117.7,117.7,118.4,116.9,118.4z M48,115.3h67.3V48H48V115.3z"/>
	<path class="st1" d="M102.8,104.3H60.5c-0.9,0-1.6-0.7-1.6-1.6V60.5c0-0.9,0.7-1.6,1.6-1.6h42.2c0.9,0,1.6,0.7,1.6,1.6v42.2
		C104.3,103.6,103.6,104.3,102.8,104.3z M62.1,101.2h39.1V62.1H62.1V101.2z"/>
	<path class="st1" d="M109.8,26.9c-4.7,0-8.6-3.9-8.6-8.6c0-4.7,3.9-8.6,8.6-8.6s8.6,3.9,8.6,8.6C118.4,23,114.6,26.9,109.8,26.9z
		 M109.8,12.8c-3,0-5.5,2.5-5.5,5.5c0,3,2.5,5.5,5.5,5.5s5.5-2.5,5.5-5.5C115.3,15.3,112.8,12.8,109.8,12.8z"/>
	<path class="st1" d="M81.6,26.9c-4.7,0-8.6-3.9-8.6-8.6c0-4.7,3.9-8.6,8.6-8.6c4.7,0,8.6,3.9,8.6,8.6C90.3,23,86.4,26.9,81.6,26.9z
		 M81.6,12.8c-3,0-5.5,2.5-5.5,5.5c0,3,2.5,5.5,5.5,5.5c3,0,5.5-2.5,5.5-5.5C87.1,15.3,84.7,12.8,81.6,12.8z"/>
	<path class="st1" d="M53.5,26.9c-4.7,0-8.6-3.9-8.6-8.6c0-4.7,3.9-8.6,8.6-8.6c4.7,0,8.6,3.9,8.6,8.6C62.1,23,58.2,26.9,53.5,26.9z
		 M53.5,12.8c-3,0-5.5,2.5-5.5,5.5c0,3,2.5,5.5,5.5,5.5c3,0,5.5-2.5,5.5-5.5C59,15.3,56.5,12.8,53.5,12.8z"/>
	<path class="st1" d="M18.3,62.1c-4.7,0-8.6-3.9-8.6-8.6c0-4.7,3.9-8.6,8.6-8.6c4.7,0,8.6,3.9,8.6,8.6C26.9,58.2,23,62.1,18.3,62.1z
		 M18.3,48c-3,0-5.5,2.5-5.5,5.5c0,3,2.5,5.5,5.5,5.5c3,0,5.5-2.5,5.5-5.5C23.8,50.5,21.3,48,18.3,48z"/>
	<path class="st1" d="M18.3,90.3c-4.7,0-8.6-3.9-8.6-8.6s3.9-8.6,8.6-8.6c4.7,0,8.6,3.9,8.6,8.6S23,90.3,18.3,90.3z M18.3,76.2
		c-3,0-5.5,2.5-5.5,5.5s2.5,5.5,5.5,5.5c3,0,5.5-2.5,5.5-5.5S21.3,76.2,18.3,76.2z"/>
	<path class="st1" d="M18.3,118.4c-4.7,0-8.6-3.9-8.6-8.6s3.9-8.6,8.6-8.6c4.7,0,8.6,3.9,8.6,8.6S23,118.4,18.3,118.4z M18.3,104.3
		c-3,0-5.5,2.5-5.5,5.5s2.5,5.5,5.5,5.5c3,0,5.5-2.5,5.5-5.5S21.3,104.3,18.3,104.3z"/>
	<path class="st1" d="M53.5,153.6c-4.7,0-8.6-3.9-8.6-8.6s3.9-8.6,8.6-8.6c4.7,0,8.6,3.9,8.6,8.6S58.2,153.6,53.5,153.6z
		 M53.5,139.5c-3,0-5.5,2.5-5.5,5.5s2.5,5.5,5.5,5.5c3,0,5.5-2.5,5.5-5.5S56.5,139.5,53.5,139.5z"/>
	<path class="st1" d="M81.6,153.6c-4.7,0-8.6-3.9-8.6-8.6s3.9-8.6,8.6-8.6c4.7,0,8.6,3.9,8.6,8.6S86.4,153.6,81.6,153.6z
		 M81.6,139.5c-3,0-5.5,2.5-5.5,5.5s2.5,5.5,5.5,5.5c3,0,5.5-2.5,5.5-5.5S84.7,139.5,81.6,139.5z"/>
	<path class="st1" d="M109.8,153.6c-4.7,0-8.6-3.9-8.6-8.6s3.9-8.6,8.6-8.6s8.6,3.9,8.6,8.6S114.6,153.6,109.8,153.6z M109.8,139.5
		c-3,0-5.5,2.5-5.5,5.5s2.5,5.5,5.5,5.5s5.5-2.5,5.5-5.5S112.8,139.5,109.8,139.5z"/>
	<path class="st1" d="M145,118.4c-4.7,0-8.6-3.9-8.6-8.6s3.9-8.6,8.6-8.6s8.6,3.9,8.6,8.6S149.8,118.4,145,118.4z M145,104.3
		c-3,0-5.5,2.5-5.5,5.5s2.5,5.5,5.5,5.5s5.5-2.5,5.5-5.5S148,104.3,145,104.3z"/>
	<path class="st1" d="M145,90.3c-4.7,0-8.6-3.9-8.6-8.6s3.9-8.6,8.6-8.6s8.6,3.9,8.6,8.6S149.8,90.3,145,90.3z M145,76.2
		c-3,0-5.5,2.5-5.5,5.5s2.5,5.5,5.5,5.5s5.5-2.5,5.5-5.5S148,76.2,145,76.2z"/>
	<path class="st1" d="M145,62.1c-4.7,0-8.6-3.9-8.6-8.6c0-4.7,3.9-8.6,8.6-8.6s8.6,3.9,8.6,8.6C153.6,58.2,149.8,62.1,145,62.1z
		 M145,48c-3,0-5.5,2.5-5.5,5.5c0,3,2.5,5.5,5.5,5.5s5.5-2.5,5.5-5.5C150.5,50.5,148,48,145,48z"/>
	<g class="st2">
		<rect x="108.2" y="25.3" class="st3" width="3.1" height="21.1"/>
	</g>
	<g class="st2">
		<rect x="80.1" y="25.3" class="st3" width="3.1" height="21.1"/>
	</g>
	<g class="st2">
		<rect x="51.9" y="25.3" class="st3" width="3.1" height="21.1"/>
	</g>
	<g class="st2">
		<rect x="66" y="32.4" class="st3" width="3.1" height="14.1"/>
	</g>
	<g class="st2">
		<rect x="94.2" y="32.4" class="st3" width="3.1" height="14.1"/>
	</g>
	<g class="st2">
		<rect x="25.3" y="51.9" class="st3" width="21.1" height="3.1"/>
	</g>
	<g class="st2">
		<rect x="25.3" y="80.1" class="st3" width="21.1" height="3.1"/>
	</g>
	<g class="st2">
		<rect x="25.3" y="108.2" class="st3" width="21.1" height="3.1"/>
	</g>
	<g class="st2">
		<rect x="32.4" y="94.2" class="st3" width="14.1" height="3.1"/>
	</g>
	<g class="st2">
		<rect x="32.4" y="66" class="st3" width="14.1" height="3.1"/>
	</g>
	<g class="st2">
		<rect x="51.9" y="116.9" class="st3" width="3.1" height="21.1"/>
	</g>
	<g class="st2">
		<rect x="80.1" y="116.9" class="st3" width="3.1" height="21.1"/>
	</g>
	<g class="st2">
		<rect x="108.2" y="116.9" class="st3" width="3.1" height="21.1"/>
	</g>
	<g class="st2">
		<rect x="94.2" y="116.9" class="st3" width="3.1" height="14.1"/>
	</g>
	<g class="st2">
		<rect x="66" y="116.9" class="st3" width="3.1" height="14.1"/>
	</g>
	<g class="st2">
		<rect x="116.9" y="108.2" class="st3" width="21.1" height="3.1"/>
	</g>
	<g class="st2">
		<rect x="116.9" y="80.1" class="st3" width="21.1" height="3.1"/>
	</g>
	<g class="st2">
		<rect x="116.9" y="51.9" class="st3" width="21.1" height="3.1"/>
	</g>
	<g class="st2">
		<rect x="116.9" y="66" class="st3" width="14.1" height="3.1"/>
	</g>
	<g class="st2">
		<rect x="116.9" y="94.2" class="st3" width="14.1" height="3.1"/>
	</g>
</g>
<g id="Manufacturing" class="st0">
	<path class="st1" d="M55,132c-2.7,0.4-5.2-1.4-5.7-4.1l-1.2-7.3l-0.3-0.1c-2.2-0.3-4.3-0.9-6.4-1.5l-0.3-0.1l-4.4,6
		c-0.8,1.1-1.9,1.8-3.2,2c-1.3,0.2-2.6-0.1-3.7-0.9l-10.8-7.9c-1.1-0.8-1.8-1.9-2-3.2c-0.2-1.3,0.1-2.6,0.9-3.7l4.4-6l-0.2-0.3
		c-1.3-1.8-2.5-3.7-3.4-5.6L18.6,99l-7.3,1.2C8.6,100.6,6,98.7,5.6,96L3.5,82.8c-0.4-2.7,1.4-5.2,4.1-5.7L15,76l0.1-0.3
		c0.3-2.2,0.9-4.3,1.5-6.4l0.1-0.3l-6-4.4C8.5,63,8,59.9,9.6,57.7l7.9-10.8c0.8-1.1,1.9-1.8,3.2-2c1.3-0.2,2.6,0.1,3.7,0.9l6,4.4
		l0.3-0.2c1.8-1.3,3.7-2.5,5.6-3.4l0.3-0.1l-1.2-7.3c-0.4-2.7,1.4-5.2,4.1-5.7l13.2-2.1c2.7-0.4,5.2,1.4,5.7,4.1l1.2,7.3l0.3,0.1
		c2.2,0.3,4.3,0.9,6.4,1.5l0.3,0.1l4.4-6c0.8-1.1,1.9-1.8,3.2-2c1.3-0.2,2.6,0.1,3.7,0.9l10.8,7.9c2.2,1.6,2.7,4.7,1.1,6.9l-4.4,6
		l0.2,0.3c1.3,1.8,2.5,3.7,3.4,5.6l0.1,0.3l7.3-1.2c2.7-0.4,5.2,1.4,5.7,4.1l2.1,13.2c0.4,2.7-1.4,5.2-4.1,5.7l-7.3,1.2l-0.1,0.3
		c-0.3,2.2-0.9,4.3-1.5,6.4L91,94.3l6,4.4c2.2,1.6,2.7,4.7,1.1,6.9l-7.9,10.8c-0.8,1.1-1.9,1.8-3.2,2c-1.3,0.2-2.6-0.1-3.7-0.9
		l-6-4.4l-0.3,0.2c-1.8,1.3-3.7,2.5-5.6,3.4l-0.3,0.1l1.2,7.3c0.4,2.7-1.4,5.2-4.1,5.7L55,132z M40.8,116c0.5-0.1,1.1,0,1.6,0.1
		c1.9,0.6,4,1.1,6,1.4c1.5,0.2,2.6,1.3,2.8,2.8l1.1,7.1c0.2,1.1,1.2,1.8,2.3,1.7l13.2-2.1c1.1-0.2,1.8-1.2,1.7-2.3l-1.1-7.1
		c-0.2-1.4,0.5-2.8,1.8-3.5c1.8-0.9,3.6-2,5.2-3.2c0.4-0.3,1-0.5,1.5-0.6c0.9-0.1,1.7,0.1,2.5,0.6l5.8,4.2c0.4,0.3,1,0.4,1.5,0.4
		c0.5-0.1,1-0.4,1.3-0.8l7.9-10.8c0.6-0.9,0.4-2.1-0.4-2.8l-5.8-4.2c-1.2-0.9-1.7-2.4-1.2-3.8c0.6-1.9,1.1-4,1.4-6
		c0.2-1.5,1.3-2.6,2.8-2.8l7.1-1.1c1.1-0.2,1.8-1.2,1.7-2.3l-2.1-13.2c-0.2-1.1-1.2-1.8-2.3-1.7l-7.1,1.1c-1.4,0.2-2.8-0.5-3.5-1.8
		c-0.9-1.8-2-3.6-3.2-5.2c-0.9-1.2-0.9-2.8,0-3.9l4.2-5.8c0.3-0.4,0.4-1,0.4-1.5c-0.1-0.5-0.4-1-0.8-1.3L76,39.8
		c-0.4-0.3-1-0.4-1.5-0.4s-1,0.4-1.3,0.8L69.1,46c-0.5,0.7-1.3,1.2-2.2,1.3c-0.5,0.1-1.1,0-1.6-0.1c-1.9-0.6-4-1.1-6-1.4
		c-1.5-0.2-2.6-1.3-2.8-2.8l-1.1-7.1c-0.2-1.1-1.2-1.8-2.3-1.7l-13.2,2.1c-1.1,0.2-1.8,1.2-1.7,2.3l1.1,7.1c0.2,1.4-0.5,2.8-1.8,3.5
		c-1.8,0.9-3.6,2-5.2,3.2c-0.4,0.3-1,0.5-1.5,0.6c-0.9,0.1-1.7-0.1-2.5-0.6l-5.8-4.2c-0.4-0.3-1-0.4-1.5-0.4c-0.5,0.1-1,0.4-1.3,0.8
		L12,59.4c-0.3,0.4-0.4,1-0.4,1.5c0.1,0.5,0.4,1,0.8,1.3l5.8,4.2c1.2,0.9,1.7,2.4,1.2,3.8c-0.6,1.9-1.1,4-1.4,6
		c-0.2,1.5-1.3,2.6-2.8,2.8l-7.1,1.1c-1.1,0.2-1.8,1.2-1.7,2.3l2.1,13.2c0.2,1.1,1.2,1.8,2.3,1.7l7.1-1.1c1.4-0.2,2.8,0.5,3.5,1.8
		c0.9,1.8,2,3.6,3.2,5.2c0.9,1.2,0.9,2.8,0,3.9l-4.2,5.8c-0.3,0.4-0.4,1-0.4,1.5c0.1,0.5,0.4,1,0.8,1.3l10.8,7.9
		c0.4,0.3,1,0.4,1.5,0.4c0.5-0.1,1-0.4,1.3-0.8l4.2-5.8C39.1,116.6,39.9,116.1,40.8,116z M57,101.8c-5.4,0.8-10.8-0.4-15.2-3.7
		c-4.4-3.2-7.3-7.9-8.1-13.3c-0.8-5.4,0.4-10.8,3.7-15.2s7.9-7.3,13.3-8.1c5.4-0.8,10.8,0.4,15.2,3.7c4.4,3.2,7.3,7.9,8.1,13.3
		c0.8,5.4-0.4,10.8-3.7,15.2C67.1,98,62.4,100.9,57,101.8z M51.1,64.4c-4.6,0.7-8.6,3.2-11.4,7c-2.7,3.8-3.8,8.4-3.1,13
		c0.7,4.6,3.2,8.6,7,11.4c3.8,2.7,8.4,3.8,13,3.1c4.6-0.7,8.6-3.2,11.4-7c2.7-3.8,3.8-8.4,3.1-13c-0.7-4.6-3.2-8.6-7-11.4
		C60.3,64.8,55.7,63.7,51.1,64.4z"/>
	<g class="st2">
		<g>
			<path class="st3" d="M148.5,124.3l-6.9,4.2c-1.5,0.9-3.5,0.4-4.5-1.1l-2.2-3.6c-1.3,0.3-2.6,0.5-3.9,0.6l-1,4.1
				c-0.4,1.7-2.2,2.8-3.9,2.4l-7.8-1.9c-0.8-0.2-1.6-0.7-2-1.5s-0.6-1.6-0.4-2.5l1-4.1c-1.1-0.7-2.2-1.5-3.2-2.4l-3.6,2.2
				c-1.5,0.9-3.5,0.4-4.5-1.1l-4.2-6.9c-0.9-1.5-0.4-3.5,1.1-4.5l3.6-2.2c-0.3-1.3-0.5-2.6-0.6-3.9l-4.1-1c-1.7-0.4-2.8-2.2-2.4-3.9
				l1.9-7.8c0.2-0.8,0.7-1.6,1.5-2c0.7-0.4,1.6-0.6,2.5-0.4l4.1,1c0.7-1.1,1.5-2.2,2.4-3.2l-2.2-3.6c-0.9-1.5-0.4-3.5,1.1-4.5
				l6.9-4.2c1.5-0.9,3.5-0.4,4.5,1.1l2.2,3.6c1.3-0.3,2.6-0.5,3.9-0.6l1-4.1c0.2-0.8,0.7-1.6,1.5-2c0.7-0.4,1.6-0.6,2.5-0.4l7.8,1.9
				c1.7,0.4,2.8,2.2,2.4,3.9l-1,4.1c1.1,0.7,2.2,1.5,3.2,2.4l3.6-2.2c1.5-0.9,3.5-0.4,4.5,1.1l4.2,6.9c0.9,1.5,0.4,3.5-1.1,4.5
				l-3.6,2.2c0.3,1.3,0.5,2.6,0.6,3.9l4.1,1c1.7,0.4,2.8,2.2,2.4,3.9l-1.9,7.8c-0.4,1.7-2.2,2.8-3.9,2.4l-4.1-1
				c-0.7,1.1-1.5,2.2-2.4,3.2l2.2,3.6C150.6,121.3,150.1,123.3,148.5,124.3z M129.9,122.3c0.3-0.2,0.7-0.3,1-0.3
				c1.2-0.1,2.4-0.3,3.6-0.6c1-0.2,2,0.2,2.5,1l2.2,3.7c0.3,0.4,0.8,0.6,1.3,0.3l6.9-4.2c0.4-0.3,0.6-0.8,0.3-1.3l-2.2-3.7
				c-0.5-0.8-0.4-1.9,0.2-2.7c0.8-0.9,1.5-1.9,2.2-2.9c0.5-0.9,1.5-1.3,2.5-1l4.2,1c0.5,0.1,1-0.2,1.1-0.7l1.9-7.8
				c0.1-0.5-0.2-1-0.7-1.1l-4.2-1c-1-0.2-1.7-1.1-1.7-2.1c-0.1-1.2-0.3-2.4-0.6-3.6c-0.2-1,0.2-2,1-2.5l3.7-2.2
				c0.4-0.3,0.6-0.8,0.3-1.3l-4.2-6.9c-0.3-0.4-0.8-0.6-1.3-0.3l-3.7,2.2c-0.8,0.5-1.9,0.4-2.7-0.2c-0.9-0.8-1.9-1.5-2.9-2.2
				c-0.9-0.5-1.3-1.5-1-2.5l1-4.2c0.1-0.5-0.2-1-0.7-1.1l-7.8-1.9c-0.2-0.1-0.5,0-0.7,0.1c-0.2,0.1-0.4,0.3-0.4,0.6l-1,4.2
				c-0.2,1-1.1,1.7-2.1,1.7c-1.2,0.1-2.4,0.3-3.6,0.6c-1,0.2-2-0.2-2.5-1l-2.2-3.7c-0.3-0.4-0.8-0.6-1.3-0.3l-6.9,4.2
				c-0.4,0.3-0.6,0.8-0.3,1.3l2.2,3.7c0.5,0.8,0.4,1.9-0.2,2.7c-0.8,0.9-1.5,1.9-2.2,2.9c-0.5,0.9-1.5,1.3-2.5,1l-4.2-1
				c-0.2-0.1-0.5,0-0.7,0.1s-0.4,0.3-0.4,0.6l-1.9,7.8c-0.1,0.5,0.2,1,0.7,1.1l4.2,1c1,0.2,1.7,1.1,1.7,2.1c0.1,1.2,0.3,2.4,0.6,3.6
				c0.2,1-0.2,2-1,2.5l-3.7,2.2c-0.4,0.3-0.6,0.8-0.3,1.3l4.2,6.9c0.3,0.4,0.8,0.6,1.3,0.3l3.7-2.2c0.8-0.5,1.9-0.4,2.7,0.2
				c0.9,0.8,1.9,1.5,2.9,2.2c0.9,0.5,1.3,1.5,1,2.5l-1,4.2c-0.1,0.2,0,0.5,0.1,0.7s0.3,0.4,0.6,0.4l7.8,1.9c0.5,0.1,1-0.2,1.1-0.7
				l1-4.2C129,123.1,129.4,122.6,129.9,122.3z M135.9,111.2c-2.9,1.7-6.2,2.2-9.5,1.4c-3.2-0.8-6-2.8-7.7-5.7s-2.2-6.2-1.4-9.5
				c0.8-3.2,2.8-6,5.7-7.7s6.2-2.2,9.5-1.4c3.2,0.8,6,2.8,7.7,5.7c1.7,2.9,2.2,6.2,1.4,9.5C140.8,106.7,138.8,109.5,135.9,111.2z
				 M124.2,91.8c-2.3,1.4-4,3.6-4.6,6.3c-0.6,2.6-0.2,5.4,1.2,7.7c1.4,2.3,3.6,4,6.3,4.6c2.6,0.6,5.4,0.2,7.7-1.2
				c2.3-1.4,4-3.6,4.6-6.3c0.6-2.6,0.2-5.4-1.2-7.7s-3.6-4-6.3-4.6C129.2,90,126.5,90.4,124.2,91.8z"/>
		</g>
	</g>
</g>
<g id="Finance">
	<g>
		<path class="st3" d="M90,136.4H75.5v-12.3c-10.2-1.5-20.2-5.5-28.1-11.5l-0.7-0.6l10.5-15.4l0.8,0.6c6.7,5.1,12.2,8,18.1,9.4V89.3
			c-18.4-5.1-26-12.8-26-26.5c0-13.4,9.7-22.7,25.4-24.7v-7.1H90v7.4c8,1.3,15.3,4.2,22.1,9l0.7,0.5l-9,15.8l-0.9-0.6
			c-4.6-3.1-9.2-5.4-13.5-6.7v16.2c18.4,5.1,26.2,13.2,26.2,26.8c0,13.3-9.8,22.7-25.6,24.8V136.4z M77.4,134.5h10.6v-11.9l0.9-0.1
			c15.3-1.7,24.7-10.5,24.7-23c0-13-7.4-20.3-25.5-25.2l-0.7-0.2V54l1.2,0.3c4.6,1.2,9.5,3.5,14.4,6.7l7.1-12.5
			c-6.6-4.5-13.6-7.2-21.3-8.3l-0.8-0.1V33H77.4v6.9L76.6,40c-15.1,1.6-24.5,10.3-24.5,22.8c0,12.9,7.1,19.9,25.3,24.8l0.7,0.2V109
			l-1.2-0.2c-6.4-1.3-12.2-4.1-19.3-9.4l-8.3,12.2c7.8,5.7,17.4,9.5,27.3,10.7l0.8,0.1V134.5z M87.4,109.5V90.1l1.3,0.5
			c6.6,2.5,9.2,5.2,9.2,10c0,3.4-1.6,7.6-9.4,8.8L87.4,109.5z M89.4,92.9v14.4c4.5-0.9,6.6-3.1,6.6-6.7C96,97.5,94.9,95.2,89.4,92.9
			z M78,71.9l-1.3-0.5c-6.5-2.3-9-5-9-9.6c0-2.7,1.2-7.4,9.2-8.6l1.1-0.2V71.9z M76.1,55.3c-3.1,0.7-6.4,2.4-6.4,6.5
			c0,2.9,1.1,5.1,6.4,7.3V55.3z"/>
	</g>
	<path class="st3" d="M81.6,153.7c-39.7,0-72.1-32.3-72.1-72.1c0-39.7,32.3-72.1,72.1-72.1s72.1,32.3,72.1,72.1
		C153.7,121.4,121.4,153.7,81.6,153.7z M81.6,11.5C43,11.5,11.5,43,11.5,81.6c0,38.7,31.5,70.1,70.1,70.1s70.1-31.5,70.1-70.1
		C151.8,43,120.3,11.5,81.6,11.5z"/>
	<path class="st3" d="M81.6,146c-35.5,0-64.4-28.9-64.4-64.4s28.9-64.4,64.4-64.4S146,46.2,146,81.6S117.1,146,81.6,146z M81.6,19.2
		c-34.4,0-62.4,28-62.4,62.4s28,62.4,62.4,62.4s62.4-28,62.4-62.4S116.1,19.2,81.6,19.2z"/>
</g>
<g id="energy" class="st0">
	<path class="st4" d="M88.3,151.8c0,2.5-1.4,4-3.1,4H78c-1.7,0-3.1-1.5-3.1-4v-1.2h-1.3v1.2c0,1.5,0.4,2.8,1.2,3.8
		c0.8,1,1.9,1.6,3.2,1.6h7.2c1.3,0,2.4-0.6,3.2-1.6c0.8-1,1.2-2.3,1.2-3.8v-1.2h-1.3V151.8z"/>
	<path class="st4" d="M87,151.8c0,0.9-0.2,1.6-0.6,2.1c-0.3,0.4-0.7,0.6-1.2,0.6H78c-0.5,0-0.9-0.2-1.2-0.6
		c-0.4-0.5-0.6-1.2-0.6-2.1v-1.2H75v1.2c0,2.5,1.4,4,3.1,4h7.2c1.7,0,3.1-1.5,3.1-4v-1.2H87V151.8z"/>
	<path class="st4" d="M67.2,137.8v-7.3h-0.7c-0.2,0-0.4,0-0.6,0v8.6C65.9,138.4,66.5,137.8,67.2,137.8z"/>
	<path class="st4" d="M96.1,130.5v7.3c0.7,0,1.3,0.6,1.3,1.3v-8.6c-0.2,0-0.4,0-0.6,0H96.1z"/>
	<rect x="67.2" y="130.5" class="st4" width="1.3" height="7.3"/>
	<polygon class="st4" points="94.8,137.8 96.1,137.8 96.1,137.8 96.1,130.5 94.8,130.5 	"/>
	<path class="st4" d="M96.1,140.4v6.1c0,1.6-1.3,2.8-2.8,2.8h-3.7c0.1,0.2,0.1,0.3,0.1,0.5v0.8h3.6c2.3,0,4.1-1.9,4.1-4.1v-7.4
		C97.4,139.8,96.8,140.4,96.1,140.4z"/>
	<path class="st4" d="M73.7,149.3H71c-2.1,0-3.8-1.7-3.8-3.8v-5.1c-0.7,0-1.3-0.6-1.3-1.3v6.4c0,2.8,2.3,5.1,5.1,5.1h2.6v-0.8
		C73.6,149.6,73.7,149.5,73.7,149.3z"/>
	<path class="st4" d="M76.3,149.8L76.3,149.8l10.8,0v0c0-0.2,0-0.3,0.1-0.5h-11C76.2,149.5,76.3,149.6,76.3,149.8z"/>
	<path class="st4" d="M89.6,149.3h-2.4c-0.1,0.2-0.1,0.3-0.1,0.5v0h1.3v0.8h1.3v-0.8C89.7,149.6,89.6,149.5,89.6,149.3z"/>
	<path class="st4" d="M75,149.8h1.3v0c0-0.2,0-0.3-0.1-0.5h-2.4c-0.1,0.2-0.1,0.3-0.1,0.5v0.8H75V149.8z"/>
	<rect x="75" y="149.8" class="st4" width="1.3" height="0.8"/>
	<rect x="87" y="149.8" class="st4" width="1.3" height="0.8"/>
	<path class="st4" d="M67.2,140.4v-1.3v-1.3c-0.7,0-1.3,0.6-1.3,1.3S66.5,140.4,67.2,140.4z"/>
	<path class="st4" d="M96.1,137.8v1.3v1.3c0.7,0,1.3-0.6,1.3-1.3S96.8,137.8,96.1,137.8z"/>
	<polygon class="st4" points="94.8,137.8 68.5,137.8 67.2,137.8 67.2,139.1 96.1,139.1 96.1,137.8 96.1,137.8 	"/>
	<path class="st4" d="M94.8,140.4v6.1c0,0.8-0.7,1.5-1.5,1.5H71c-1.4,0-2.5-1.1-2.5-2.5v-5.1h-1.3v5.1c0,2.1,1.7,3.8,3.8,3.8h2.7
		c0.2-0.5,0.7-0.8,1.2-0.8s1,0.3,1.2,0.8h11c0.2-0.5,0.7-0.8,1.2-0.8c0.5,0,1,0.3,1.2,0.8h3.7c1.6,0,2.8-1.3,2.8-2.8v-6.1h0H94.8z"
		/>
	<path class="st4" d="M88.3,148.5c-0.5,0-1,0.3-1.2,0.8h2.4C89.4,148.8,88.9,148.5,88.3,148.5z"/>
	<path class="st4" d="M75,148.5c-0.5,0-1,0.3-1.2,0.8h2.4C76,148.8,75.5,148.5,75,148.5z"/>
	<polygon class="st4" points="67.2,140.4 68.5,140.4 94.8,140.4 96.1,140.4 96.1,140.4 96.1,139.1 67.2,139.1 	"/>
	<path class="st4" d="M137,31.7c-0.3-0.7-1.1-0.9-1.7-0.6l-11.4,5.5c-0.7,0.3-0.9,1.1-0.6,1.7c0.2,0.5,0.7,0.7,1.2,0.7
		c0.2,0,0.4,0,0.6-0.1l11.4-5.5C137.1,33.1,137.3,32.3,137,31.7z M124.4,37.7l11.4-5.5L124.4,37.7z"/>
	<path class="st4" d="M137.9,59h-7.6c-0.7,0-1.3,0.6-1.3,1.3s0.6,1.3,1.3,1.3h7.6c0.7,0,1.3-0.6,1.3-1.3S138.6,59,137.9,59z
		 M130.3,60.3h7.6H130.3z"/>
	<path class="st4" d="M107.9,21.9c0.2,0.2,0.5,0.2,0.7,0.2c0.4,0,0.8-0.2,1.1-0.6l4.3-6.3c0.4-0.6,0.2-1.4-0.3-1.8
		c-0.6-0.4-1.4-0.2-1.8,0.3l-4.3,6.3C107.2,20.7,107.3,21.5,107.9,21.9z M113,14.5l-4.3,6.3L113,14.5z"/>
	<path class="st4" d="M39.5,36.5L28,31c-0.7-0.3-1.4,0-1.7,0.6c-0.3,0.7,0,1.4,0.6,1.7l11.4,5.5c0.2,0.1,0.4,0.1,0.6,0.1
		c0.5,0,1-0.3,1.2-0.7C40.4,37.6,40.1,36.8,39.5,36.5z M27.5,32.2l11.4,5.5L27.5,32.2z"/>
	<path class="st4" d="M33,59h-7.6c-0.7,0-1.3,0.6-1.3,1.3s0.6,1.3,1.3,1.3H33c0.7,0,1.3-0.6,1.3-1.3S33.8,59,33,59z M25.4,60.3H33
		H25.4z"/>
	<path class="st4" d="M54.6,22.2c0.3,0,0.5-0.1,0.7-0.2c0.6-0.4,0.8-1.2,0.3-1.8l-4.3-6.3c-0.4-0.6-1.2-0.8-1.8-0.3
		c-0.6,0.4-0.8,1.2-0.3,1.8l4.3,6.3C53.8,22,54.2,22.2,54.6,22.2z M54.6,20.8l-4.3-6.3L54.6,20.8z"/>
	<path class="st4" d="M82.3,15.5c0.7,0,1.3-0.6,1.3-1.3V7.5c0-0.7-0.6-1.3-1.3-1.3S81,6.8,81,7.5v6.7C81,15,81.6,15.5,82.3,15.5z
		 M82.3,7.5v6.7V7.5z"/>
	<polygon class="st4" points="65.1,106.7 62.5,107.3 62.5,113 65.1,113 	"/>
	<polygon class="st4" points="72.9,104.9 72.9,113 75.5,113 75.5,104.4 	"/>
	<polygon class="st4" points="88.6,101.4 88.6,113 91.2,113 91.2,100.9 	"/>
	<polygon class="st4" points="99.1,113 101.7,113 101.7,98.5 99.1,99.1 	"/>
	<rect x="75.5" y="113" class="st4" width="13.1" height="1.3"/>
	<rect x="65.1" y="113" class="st4" width="7.8" height="0.9"/>
	<path class="st4" d="M57.7,120.3v-6h4.8V113h-4.8c-0.7,0-1.3,0.6-1.3,1.3v6c0,5.4,4.2,9.8,9.6,10.1v-1.3
		C61.3,128.9,57.7,125,57.7,120.3z"/>
	<path class="st4" d="M105.6,114.3v6c0,4.7-3.6,8.5-8.2,8.8v1.3c5.3-0.3,9.6-4.7,9.6-10.1v-6c0-0.7-0.6-1.3-1.3-1.3h-3.9v1.3H105.6z
		"/>
	<rect x="91.2" y="113" class="st4" width="7.8" height="0.9"/>
	<rect x="68.5" y="130.3" class="st4" width="26.2" height="0.2"/>
	<path class="st4" d="M96.8,129.2h-0.7v1.3h0.7c0.2,0,0.4,0,0.6,0v-1.3C97.2,129.2,97,129.2,96.8,129.2z"/>
	<path class="st4" d="M67.2,130.5v-1.3h-0.7c-0.2,0-0.4,0-0.6,0v1.3c0.2,0,0.4,0,0.6,0H67.2z"/>
	<polygon class="st4" points="67.2,130.5 68.5,130.5 68.5,130.3 94.8,130.3 94.8,130.5 96.1,130.5 96.1,129.2 67.2,129.2 	"/>
	<polygon class="st4" points="75.5,114.3 75.5,113 72.9,113 72.9,113.9 65.1,113.9 65.1,113 62.5,113 62.5,114.3 	"/>
	<polygon class="st4" points="99.1,113.9 91.2,113.9 91.2,113 88.6,113 88.6,114.3 101.7,114.3 101.7,113 99.1,113 	"/>
	<path class="st4" d="M66.5,127.9L66.5,127.9c-4.2,0-7.5-3.4-7.5-7.5v-4.7h3.6c0-0.1-0.1-0.3-0.1-0.4v-0.9h-4.8v6
		c0,4.7,3.6,8.5,8.2,8.8V129C65.9,128.5,66.2,128.1,66.5,127.9z"/>
	<path class="st4" d="M75.5,115.2c0,0.2,0,0.3-0.1,0.4h13.2c0-0.1-0.1-0.3-0.1-0.4v-0.9H75.5V115.2z"/>
	<path class="st4" d="M101.6,115.7h2.7v4.7c0,4.1-3.4,7.5-7.5,7.5h0c0.4,0.2,0.6,0.6,0.6,1.1v0.2c4.6-0.3,8.2-4.1,8.2-8.8v-6h-3.9
		v0.9C101.7,115.4,101.7,115.5,101.6,115.7z"/>
	<path class="st4" d="M96.8,127.9H66.5c-0.4,0.2-0.6,0.6-0.6,1.1v0.2c0.2,0,0.4,0,0.6,0h0.7V129h28.9v0.2h0.7c0.2,0,0.4,0,0.6,0V129
		C97.4,128.5,97.1,128.1,96.8,127.9z"/>
	<rect x="67.2" y="129" class="st4" width="28.9" height="0.2"/>
	<path class="st4" d="M62.5,115.7h12.9c0-0.1,0.1-0.3,0.1-0.4v-0.9H62.5v0.9C62.5,115.4,62.5,115.5,62.5,115.7z"/>
	<path class="st4" d="M101.6,115.7c0-0.1,0.1-0.3,0.1-0.4v-0.9H88.6v0.9c0,0.2,0,0.3,0.1,0.4"/>
	<polygon class="st4" points="101.7,97.2 101.7,98.5 107.1,97.3 106.9,96 	"/>
	<polygon class="st4" points="72.9,103.6 65.1,105.4 65.1,106.7 72.9,104.9 	"/>
	<polygon class="st4" points="91.2,100.9 99.1,99.1 99.1,98.2 97.1,98.2 91.2,99.5 	"/>
	<polygon class="st4" points="75.5,104.4 88.6,101.4 88.6,100.1 75.5,103 	"/>
	<path class="st4" d="M110.1,80.4c-2.1-1.3-4.6-1.8-7-1.2L57.5,89.4c-2.4,0.5-4.5,2-5.8,4.1c-1.3,2.1-1.8,4.6-1.2,7
		c1,4.3,4.8,7.3,9.1,7.3c0.7,0,1.3-0.1,2-0.2l1-0.2v-1.3l-1.2,0.3c-4.3,1-8.6-1.8-9.5-6.1c-1-4.3,1.8-8.6,6.1-9.5l45.6-10.2
		c4.3-1,8.6,1.8,9.5,6.1c1,4.3-1.8,8.6-6.1,9.5l0,0l0.3,1.3c2.4-0.5,4.5-2,5.8-4.1c1.3-2.1,1.8-4.6,1.2-7
		C113.6,83.8,112.2,81.7,110.1,80.4z"/>
	<polygon class="st4" points="65.1,105.4 62.5,105.9 62.5,107.3 65.1,106.7 	"/>
	<polygon class="st4" points="72.9,103.6 72.9,104.9 75.5,104.4 75.5,103 	"/>
	<polygon class="st4" points="91.2,100.9 91.2,99.5 88.6,100.1 88.6,101.4 	"/>
	<polygon class="st4" points="97.1,98.2 99.1,98.2 99.1,99.1 101.7,98.5 101.7,97.2 	"/>
	<path class="st4" d="M60.9,104.9c-0.5,0.1-1,0.2-1.5,0.2c-3.1,0-5.8-2.1-6.5-5.2c-0.4-1.7-0.1-3.5,0.9-5c1-1.5,2.4-2.5,4.2-2.9
		l45.6-10.2c0.5-0.1,1-0.2,1.5-0.2c1.3,0,2.5,0.4,3.6,1c1.5,1,2.5,2.4,2.9,4.2c0.4,1.7,0.1,3.5-0.9,5c-1,1.5-2.4,2.5-4.2,2.9
		l-5.3,1.2c0.3,0.2,0.4,0.6,0.4,1v0.3l5.1-1.1v0v0l0,0c4.3-1,7-5.2,6.1-9.5c-1-4.3-5.2-7-9.5-6.1L57.8,90.6c-4.3,1-7,5.2-6.1,9.5
		c1,4.3,5.2,7,9.5,6.1l1.2-0.3v-1.3L60.9,104.9z"/>
	<polygon class="st4" points="91.2,99.5 97.1,98.2 91.2,98.2 	"/>
	<polygon class="st4" points="72.9,102.3 65.1,104 65.1,105.4 72.9,103.6 	"/>
	<polygon class="st4" points="75.5,103 88.6,100.1 88.6,98.8 75.5,101.7 	"/>
	<polygon class="st4" points="75.5,101.7 72.9,102.3 72.9,103.6 75.5,103 	"/>
	<polygon class="st4" points="65.1,104 62.5,104.6 62.5,105.9 65.1,105.4 	"/>
	<path class="st4" d="M101.3,95.9l-12.7,2.8v1.3l2.6-0.6v-1.3h5.9l4.6-1v-0.3C101.7,96.5,101.5,96.2,101.3,95.9z"/>
	<path class="st4" d="M110.1,58.3c-2.1-1.3-4.6-1.8-7-1.2L57.5,67.2c-2.4,0.5-4.5,2-5.8,4.1c-1.3,2.1-1.8,4.6-1.2,7
		c0.5,2.4,2,4.5,4.1,5.8c1.5,1,3.2,1.5,5,1.5c0.7,0,1.4-0.1,2-0.2l45.6-10.2c2.4-0.5,4.5-2,5.8-4.1c1.3-2.1,1.8-4.6,1.2-7
		C113.6,61.7,112.2,59.6,110.1,58.3z M106.9,73.9L106.9,73.9L106.9,73.9L61.2,84.1c-4.3,1-8.6-1.8-9.5-6.1s1.8-8.6,6.1-9.5
		l45.6-10.2c4.3-1,8.6,1.8,9.5,6.1C113.9,68.7,111.2,72.9,106.9,73.9z"/>
	<path class="st4" d="M103.4,58.3L57.8,68.5c-4.3,1-7,5.2-6.1,9.5s5.2,7,9.5,6.1l45.6-10.2h0h0c4.3-1,7-5.2,6.1-9.5
		C111.9,60.1,107.7,57.4,103.4,58.3z M110.7,69.7c-1,1.5-2.4,2.5-4.2,2.9L60.9,82.8c-1.7,0.4-3.5,0.1-5-0.9s-2.5-2.4-2.9-4.2
		c-0.4-1.7-0.1-3.5,0.9-5c1-1.5,2.4-2.5,4.2-2.9l45.6-10.2c0.5-0.1,1-0.2,1.5-0.2c1.3,0,2.5,0.4,3.6,1c1.5,1,2.5,2.4,2.9,4.2
		C112,66.4,111.7,68.2,110.7,69.7z"/>
	<path class="st4" d="M110.1,36.1c-2.1-1.3-4.6-1.8-7-1.2L57.5,45c-2.4,0.5-4.5,2-5.8,4.1c-1.3,2.1-1.8,4.6-1.2,7
		c0.5,2.4,2,4.5,4.1,5.8c1.5,1,3.2,1.5,5,1.5c0.7,0,1.4-0.1,2-0.2L107.1,53c2.4-0.5,4.5-2,5.8-4.1c1.3-2.1,1.8-4.6,1.2-7
		C113.6,39.5,112.2,37.4,110.1,36.1z M106.9,51.7L106.9,51.7L106.9,51.7z M106.9,51.7L61.2,61.9c-4.3,1-8.6-1.8-9.5-6.1
		c-1-4.3,1.8-8.6,6.1-9.5l45.6-10.2c4.3-1,8.6,1.8,9.5,6.1C113.9,46.5,111.2,50.8,106.9,51.7z"/>
	<path class="st4" d="M103.4,36.2L57.8,46.3c-4.3,1-7,5.2-6.1,9.5c1,4.3,5.2,7,9.5,6.1l45.6-10.2c4.3-1,7-5.2,6.1-9.5
		C111.9,37.9,107.7,35.2,103.4,36.2z M110.7,47.5c-1,1.5-2.4,2.5-4.2,2.9L60.9,60.6c-1.7,0.4-3.5,0.1-5-0.9c-1.5-1-2.5-2.4-2.9-4.2
		c-0.4-1.7-0.1-3.5,0.9-5c1-1.5,2.4-2.5,4.2-2.9l45.6-10.2c0.5-0.1,1-0.2,1.5-0.2c1.3,0,2.5,0.4,3.6,1c1.5,1,2.5,2.4,2.9,4.2
		C112,44.2,111.7,46,110.7,47.5z"/>
	<path class="st4" d="M65.7,39.6c0.4,0,0.9,0,1.3-0.1l27.1-6c1.6-0.4,2.9-1.3,3.8-2.7c0.9-1.4,1.1-3,0.8-4.6
		c-0.4-1.6-1.3-2.9-2.7-3.8c-1.4-0.9-3-1.1-4.6-0.8l-27.1,6c-3.3,0.7-5.3,4-4.6,7.2C60.5,37.7,63,39.6,65.7,39.6z M64.7,28.9l27.1-6
		c2.6-0.6,5.1,1,5.7,3.6s-1,5.1-3.6,5.7l-27.1,6c-2.6,0.6-5.1-1-5.7-3.6C60.6,32,62.2,29.5,64.7,28.9z"/>
	<path class="st4" d="M66.8,38.2l27.1-6l-0.3-1.3l-27.1,6c-1.8,0.4-3.7-0.8-4.1-2.6c-0.4-1.8,0.8-3.7,2.6-4.1l27.1-6
		c0.3-0.1,0.5-0.1,0.8-0.1c0.6,0,1.3,0.2,1.8,0.5c0.8,0.5,1.3,1.3,1.5,2.1c0.2,0.9,0,1.8-0.5,2.6c-0.5,0.8-1.3,1.3-2.1,1.5l0.3,1.3
		c2.6-0.6,4.2-3.1,3.6-5.7s-3.1-4.2-5.7-3.6l-27.1,6c-2.6,0.6-4.2,3.1-3.6,5.7C61.7,37.2,64.2,38.8,66.8,38.2z"/>
</g>
<g id="healthcare" class="st0">
	<path class="st4" d="M98.2,97.8l0.3,0.9c0.7-0.8,1.3-1.7,2-2.6l-0.3-1C99.5,96.1,98.8,97,98.2,97.8z"/>
	<path class="st4" d="M110,75.5l-0.1,0.2c-0.1,0.2-0.2,0.4-0.3,0.6l0.3,1.2c0.2-0.6,0.5-1.1,0.7-1.7c0.3-0.8,0.7-1.5,1-2.3
		c-0.2-0.1-0.4-0.3-0.7-0.4C110.8,73.9,110.4,74.7,110,75.5z"/>
	<path class="st4" d="M104.2,88.1l0.3,1.1c0.6-1.1,1.2-2.3,1.8-3.5l-0.3-1.1C105.4,85.8,104.8,86.9,104.2,88.1z"/>
	<path class="st4" d="M91,103.8l0.2,0.8c0.8-0.4,1.6-0.8,2.3-1.3l-0.2-0.8C92.6,103,91.8,103.4,91,103.8z"/>
	<path class="st4" d="M50.8,102.6c15.2,10,26.1,17.1,41,12.6c14.6-4.4,20.6-18,28.3-35.3l0.2-0.4c0.1-0.2,0.2-0.3,0.2-0.5
		c-0.2-0.1-0.4-0.3-0.7-0.4c-0.1,0.3-0.3,0.7-0.4,1c-7.5,16.9-13.5,30.5-27.8,34.8c-14.5,4.4-25.3-2.7-40.4-12.6
		c-1.1-0.7-2.3-1.5-3.4-2.2c-0.1,0.2-0.2,0.5-0.4,0.7c1,0.7,2,1.3,3,2L50.8,102.6z"/>
	<path class="st4" d="M26.8,88.2l-0.3-1c-1-0.5-2.1-1-3.2-1.6l0.3,1C24.8,87.2,25.8,87.7,26.8,88.2z"/>
	<path class="st4" d="M73,102.9l0.3,1c1,0.4,2,0.8,3,1.2l-0.3-0.9C75,103.8,74,103.4,73,102.9z"/>
	<path class="st4" d="M37.5,94.1L37.2,93c-1.1-0.6-2.1-1.3-3.3-1.9l0.3,1.1C35.4,92.9,36.5,93.5,37.5,94.1z"/>
	<path class="st4" d="M82.6,105.5l0.2,0.8c0.9,0,1.8,0,2.7-0.1l-0.2-0.8C84.4,105.5,83.5,105.5,82.6,105.5z"/>
	<path class="st4" d="M139,29.2l3.1,10.6c-2,2.3-3.8,4.7-5.5,7.1l0.3,1c1.8-2.6,3.7-5.1,5.8-7.6c0.2-0.2,0.2-0.5,0.2-0.7L139.8,29
		c-0.1-0.3-0.3-0.5-0.6-0.5c-0.3-0.1-0.6,0-0.8,0.2c-10.5,11.2-17.4,23.2-22.7,34.3c0.2,0.1,0.4,0.3,0.7,0.4
		C121.8,52.2,128.6,40.3,139,29.2z"/>
	<path class="st4" d="M52.1,90.3c-0.1,0.2-0.2,0.5-0.3,0.7c1.1,0.7,2.2,1.4,3.2,2.1L54.7,92C53.8,91.4,53,90.9,52.1,90.3z"/>
	<path class="st4" d="M132.7,54.5l-0.3-1c-0.6,1-1.2,2-1.8,3.1l0.3,1C131.5,56.5,132.1,55.5,132.7,54.5z"/>
	<path class="st4" d="M62.3,96.9l0.3,1c0,0,0,0.1,0,0.1c1.2,0.7,2.3,1.4,3.4,2.1L65.7,99C64.6,98.4,63.4,97.7,62.3,96.9z"/>
	<path class="st4" d="M126.9,65.1l-0.3-1.1c-0.6,1.2-1.1,2.3-1.7,3.4l0.3,1.1C125.8,67.4,126.3,66.3,126.9,65.1z"/>
	<path class="st4" d="M8.3,79.3L5.1,68.4c15.3,4.8,27.4,10.8,37.3,16.8c0.1-0.2,0.2-0.5,0.3-0.7c-10-5.9-22-12-37.4-16.8
		c-0.3-0.1-0.6,0-0.8,0.2c-0.2,0.2-0.3,0.5-0.2,0.8l3.2,10.9C7.6,79.8,7.8,80,8,80c3,1.1,5.9,2.2,8.6,3.4l-0.3-1
		C13.7,81.4,11.1,80.3,8.3,79.3z"/>
	<path class="st4" d="M126.6,64l-0.3-1.1c-0.6,1.1-1.2,2.3-1.7,3.4l0.3,1.1C125.4,66.3,126,65.2,126.6,64z"/>
	<path class="st4" d="M37.2,93l-0.3-1.1c-1.1-0.6-2.1-1.2-3.3-1.9l0.3,1.1C35,91.8,36.1,92.4,37.2,93z"/>
	<path class="st4" d="M73.3,103.9l0.2,0.6c0,0.1,0.1,0.3,0.1,0.4c1,0.4,2.1,0.8,3.1,1.1l-0.3-0.9C75.3,104.8,74.3,104.4,73.3,103.9z
		"/>
	<path class="st4" d="M62.6,98.1c0.1,0.3,0.1,0.7,0.1,1c1.2,0.8,2.5,1.5,3.7,2.2l-0.3-1.1C64.9,99.5,63.8,98.8,62.6,98.1z"/>
	<path class="st4" d="M132.4,53.4l-0.3-1c-0.6,1-1.2,2-1.8,3l0.3,1.1C131.2,55.5,131.8,54.5,132.4,53.4z"/>
	<path class="st4" d="M51.8,91c-0.1,0.2-0.2,0.5-0.3,0.7c1.3,0.9,2.6,1.7,3.9,2.6L55,93.1C54,92.4,52.9,91.7,51.8,91z"/>
	<path class="st4" d="M82.9,106.3l0.2,0.8c0.9,0,1.8,0,2.7-0.2l-0.2-0.8C84.6,106.3,83.8,106.3,82.9,106.3z"/>
	<path class="st4" d="M110.8,75.8c-0.2,0.6-0.5,1.1-0.7,1.7l0.3,1.2c0.3-0.8,0.7-1.5,1-2.3l0.1-0.2c0.3-0.7,0.6-1.5,1-2.2
		c-0.2-0.1-0.4-0.3-0.7-0.4C111.4,74.3,111.1,75,110.8,75.8z"/>
	<path class="st4" d="M104.5,89.2l0.3,1.1c0.6-1.1,1.2-2.3,1.8-3.5l-0.3-1.1C105.7,86.9,105.1,88.1,104.5,89.2z"/>
	<path class="st4" d="M100.4,96.1c-0.6,0.9-1.3,1.8-2,2.6l0.3,0.9c0.7-0.8,1.4-1.7,2-2.6c-0.1-0.2-0.1-0.3-0.2-0.5L100.4,96.1z"/>
	<path class="st4" d="M91.2,104.6l0.2,0.8c0.8-0.4,1.6-0.8,2.3-1.3l-0.2-0.8C92.8,103.7,92,104.2,91.2,104.6z"/>
	<path class="st4" d="M26.5,87.2l-0.3-1c-1-0.5-2.1-1-3.2-1.5l0.3,1C24.5,86.1,25.5,86.7,26.5,87.2z"/>
	<path class="st4" d="M118.8,78.9l-0.2,0.5c-7.4,16.8-13.3,30-27.2,34.2c-14.1,4.3-24.8-2.7-39.8-12.5l-0.3-0.2
		c-1-0.7-2.1-1.4-3.2-2.1c-0.1,0.2-0.2,0.5-0.4,0.7c1.2,0.8,2.3,1.5,3.4,2.2c15.1,9.9,25.9,17,40.4,12.6
		c14.3-4.3,20.3-17.9,27.8-34.8c0.1-0.3,0.3-0.7,0.4-1c-0.2-0.1-0.5-0.3-0.7-0.4C119,78.4,118.9,78.7,118.8,78.9z"/>
	<path class="st4" d="M138.6,30.7l2.6,8.9c-1.7,2.1-3.4,4.2-4.9,6.3l0.3,1c1.7-2.4,3.5-4.8,5.5-7.1L139,29.2
		c-10.5,11.2-17.2,23-22.6,34.2c0.2,0.1,0.4,0.3,0.7,0.4C122.3,53,128.7,41.6,138.6,30.7z"/>
	<path class="st4" d="M8.9,78.7l-2.7-9.2c14.7,4.7,26.2,10.6,35.8,16.3c0.1-0.2,0.2-0.5,0.3-0.7c-10-5.9-22-12-37.3-16.8l3.2,10.9
		c2.8,1,5.5,2.1,8,3.1l-0.3-1C13.7,80.5,11.4,79.6,8.9,78.7z"/>
	<path class="st4" d="M145.5,79.8c0.3,0.1,0.6,0.3,0.9,0.4l-9.5-32.3c-0.2,0.3-0.4,0.6-0.6,0.8L145.5,79.8z"/>
	<path class="st4" d="M139.3,77c0.3,0.2,0.6,0.3,1,0.5l-7-23.9c-0.2,0.3-0.4,0.6-0.6,0.9L139.3,77z"/>
	<path class="st4" d="M132.5,42.9c-1.6,0.5-2.5,2.1-2,3.7l1.7,5.8c0.2-0.3,0.4-0.6,0.6-0.9l-1.5-5.1c-0.3-1.1,0.3-2.4,1.5-2.7
		c1.1-0.3,2.3,0.4,2.7,1.5l0.5,1.6c0.2-0.3,0.4-0.5,0.6-0.8l-0.3-1C135.6,43.4,134,42.4,132.5,42.9z"/>
	<path class="st4" d="M136.1,47.8l0.3,1c0.2-0.3,0.4-0.6,0.6-0.8l-0.3-1C136.5,47.2,136.3,47.5,136.1,47.8z"/>
	<path class="st4" d="M133.3,53.6l-0.3-1c-0.2,0.3-0.4,0.6-0.6,0.9l0.3,1C132.9,54.2,133.1,53.9,133.3,53.6z"/>
	<path class="st4" d="M135.8,46.8l0.3,1c0.2-0.3,0.4-0.6,0.6-0.8l-0.3-1C136.2,46.3,136,46.5,135.8,46.8z"/>
	<path class="st4" d="M133,52.5l-0.3-1c-0.2,0.3-0.4,0.6-0.6,0.9l0.3,1C132.6,53.1,132.8,52.8,133,52.5z"/>
	<path class="st4" d="M144.5,79.4c0.3,0.1,0.6,0.3,0.9,0.4l-9.1-31.1c-0.2,0.3-0.4,0.6-0.6,0.8L144.5,79.4z"/>
	<path class="st4" d="M140.3,77.5c0.3,0.2,0.6,0.3,1,0.5l-7.4-25.3c-0.2,0.3-0.4,0.6-0.6,0.9L140.3,77.5z"/>
	<path class="st4" d="M132.7,43.7c-1.2,0.4-1.8,1.6-1.5,2.7l1.5,5.1c0.2-0.3,0.4-0.6,0.6-0.9l-1.3-4.5c-0.2-0.7,0.2-1.5,1-1.8
		c0.7-0.2,1.5,0.2,1.7,1l0.7,2.2c0.2-0.3,0.4-0.6,0.6-0.8l-0.5-1.6C135,44,133.8,43.3,132.7,43.7z"/>
	<path class="st4" d="M133.3,53.6c0.2-0.3,0.4-0.6,0.6-0.9l-0.3-1c-0.2,0.3-0.4,0.6-0.6,0.9L133.3,53.6z"/>
	<path class="st4" d="M135.8,49.6c0.2-0.3,0.4-0.6,0.6-0.8l-0.3-1c-0.2,0.3-0.4,0.6-0.6,0.8L135.8,49.6z"/>
	<path class="st4" d="M133.5,51.7l-0.3-1c-0.2,0.3-0.4,0.6-0.6,0.9l0.3,1C133.2,52.2,133.3,51.9,133.5,51.7z"/>
	<path class="st4" d="M135.2,47.6l0.3,1c0.2-0.3,0.4-0.6,0.6-0.8l-0.3-1C135.6,47.1,135.4,47.4,135.2,47.6z"/>
	<path class="st4" d="M136.1,75.4l-5.2-17.8c-0.2,0.3-0.4,0.6-0.5,1l4.8,16.3C135.5,75,135.8,75.2,136.1,75.4z"/>
	<path class="st4" d="M129.7,71.7l-2.2-7.6c-0.2,0.3-0.3,0.7-0.5,1l1.8,6C129,71.3,129.3,71.5,129.7,71.7z"/>
	<path class="st4" d="M124.9,55.6c-0.3-1.1,0.4-2.3,1.5-2.7c1.1-0.3,2.4,0.3,2.7,1.4l0.6,2c0.2-0.3,0.4-0.6,0.5-0.9l-0.4-1.3
		c-0.5-1.5-2.1-2.4-3.7-2c-1.6,0.5-2.5,2.1-2.1,3.6l2.1,7.1c0.2-0.3,0.3-0.7,0.5-1L124.9,55.6z"/>
	<path class="st4" d="M127.4,64.1l-0.3-1.1c-0.2,0.3-0.3,0.7-0.5,1l0.3,1.1C127.1,64.8,127.2,64.4,127.4,64.1z"/>
	<path class="st4" d="M130.9,57.6l-0.3-1c-0.2,0.3-0.4,0.6-0.5,1l0.3,1.1C130.6,58.2,130.7,57.9,130.9,57.6z"/>
	<path class="st4" d="M130.1,57.5c0.2-0.3,0.4-0.6,0.5-1l-0.3-1.1c-0.2,0.3-0.4,0.6-0.5,0.9L130.1,57.5z"/>
	<path class="st4" d="M127.1,63l-0.3-1.1c-0.2,0.3-0.3,0.7-0.5,1l0.3,1.1C126.7,63.7,126.9,63.3,127.1,63z"/>
	<path class="st4" d="M130.6,72.3l-2.7-9.2c-0.2,0.3-0.3,0.7-0.5,1l2.2,7.6C130,71.9,130.3,72.1,130.6,72.3z"/>
	<path class="st4" d="M135.1,74.8l-4.8-16.3c-0.2,0.3-0.4,0.6-0.5,1l4.3,14.8C134.5,74.5,134.8,74.7,135.1,74.8z"/>
	<path class="st4" d="M125.7,55.4c-0.2-0.7,0.2-1.5,1-1.7c0.7-0.2,1.5,0.2,1.7,0.9l0.8,2.8c0.2-0.3,0.4-0.6,0.5-1l-0.6-2
		c-0.3-1.1-1.6-1.8-2.7-1.4c-1.1,0.3-1.8,1.5-1.5,2.7l1.8,6.3c0.2-0.3,0.3-0.7,0.5-1L125.7,55.4z"/>
	<path class="st4" d="M127.9,63.1l-0.3-1.1c-0.2,0.3-0.4,0.7-0.5,1l0.3,1.1C127.6,63.8,127.8,63.4,127.9,63.1z"/>
	<path class="st4" d="M129.8,59.5c0.2-0.3,0.4-0.6,0.5-1l-0.3-1.1c-0.2,0.3-0.4,0.6-0.5,1L129.8,59.5z"/>
	<path class="st4" d="M127.3,60.9c-0.2,0.3-0.4,0.7-0.5,1l0.3,1.1c0.2-0.3,0.3-0.7,0.5-1L127.3,60.9z"/>
	<path class="st4" d="M129.5,58.4c0.2-0.3,0.4-0.6,0.5-1l-0.3-1.1c-0.2,0.3-0.4,0.6-0.5,1L129.5,58.4z"/>
	<path class="st4" d="M125.2,68.6c-0.1,0.1-0.1,0.2-0.2,0.3c0.1,0.1,0.2,0.1,0.3,0.2L125.2,68.6z"/>
	<path class="st4" d="M120.4,62.7c1.2-0.4,2.4,0.3,2.7,1.5l0.9,3.2c0.2-0.4,0.3-0.7,0.5-1.1l-0.7-2.4c-0.5-1.6-2.1-2.5-3.7-2
		c-1.2,0.3-2,1.4-2.1,2.5c0.3,0.2,0.5,0.3,0.8,0.5C118.7,63.9,119.4,63,120.4,62.7z"/>
	<path class="st4" d="M125.2,68.6l-0.3-1.1c-0.2,0.4-0.3,0.7-0.5,1.1c0.2,0.1,0.4,0.3,0.7,0.4C125.1,68.8,125.2,68.7,125.2,68.6z"/>
	<path class="st4" d="M124.4,68.5C124.4,68.5,124.4,68.5,124.4,68.5c0.2-0.3,0.3-0.7,0.5-1l-0.3-1.1c-0.2,0.4-0.3,0.7-0.5,1.1
		L124.4,68.5z"/>
	<path class="st4" d="M119.7,65.2c-0.2-0.8,0.2-1.5,0.9-1.7c0.8-0.2,1.5,0.2,1.8,1l1,3.5c0.1,0.1,0.2,0.1,0.3,0.2
		c0.1-0.2,0.2-0.5,0.3-0.7l-0.9-3.2c-0.4-1.2-1.5-1.8-2.7-1.5c-1,0.3-1.6,1.2-1.5,2.3c0.3,0.2,0.6,0.4,1,0.6L119.7,65.2z"/>
	<path class="st4" d="M124.4,68.5l-0.3-1.1c-0.1,0.2-0.2,0.5-0.3,0.7C123.9,68.2,124.1,68.4,124.4,68.5z"/>
	<path class="st4" d="M107.1,70.4l2.1,7c0.2-0.4,0.3-0.7,0.5-1.1l-1.5-5.2C107.8,70.8,107.5,70.6,107.1,70.4z"/>
	<path class="st4" d="M100.6,66.1l5.4,18.4c0.2-0.4,0.3-0.7,0.5-1.1l-4.9-16.7C101.2,66.6,100.9,66.3,100.6,66.1z"/>
	<path class="st4" d="M111.6,85.6c0.3,1.1-0.3,2.3-1.5,2.7c-1.1,0.3-2.3-0.3-2.6-1.4l-0.3-1c-0.2,0.4-0.3,0.7-0.5,1.1l0.1,0.2
		c0.5,1.5,2.1,2.4,3.6,2c1.6-0.5,2.5-2.1,2.1-3.6l-2-6.7c-0.2,0.4-0.3,0.7-0.5,1.1L111.6,85.6z"/>
	<path class="st4" d="M109.2,77.4l0.3,1.2c0.2-0.4,0.3-0.7,0.5-1.1l-0.3-1.2C109.5,76.7,109.3,77,109.2,77.4z"/>
	<path class="st4" d="M105.9,84.5l0.3,1.1c0.2-0.4,0.3-0.7,0.5-1.1l-0.3-1.1C106.3,83.8,106.1,84.2,105.9,84.5z"/>
	<path class="st4" d="M106.8,84.6c-0.2,0.4-0.3,0.7-0.5,1.1l0.3,1.1c0.2-0.3,0.3-0.7,0.5-1.1L106.8,84.6z"/>
	<path class="st4" d="M109.5,78.6l0.3,1.2c0.2-0.4,0.3-0.7,0.5-1.1l-0.3-1.2C109.9,77.8,109.7,78.2,109.5,78.6z"/>
	<path class="st4" d="M106.1,69.7l2.6,8.8c0.2-0.4,0.3-0.7,0.5-1.1l-2.1-7C106.8,70.2,106.4,69.9,106.1,69.7z"/>
	<path class="st4" d="M101.6,66.8l4.9,16.7c0.2-0.4,0.3-0.7,0.5-1.1l-4.4-15C102.2,67.2,101.9,67,101.6,66.8z"/>
	<path class="st4" d="M110.8,85.8c0.2,0.7-0.2,1.5-1,1.7c-0.7,0.2-1.5-0.2-1.7-0.9l-0.6-1.9c-0.2,0.4-0.3,0.7-0.5,1.1l0.3,1
		c0.3,1.1,1.5,1.8,2.6,1.4c1.2-0.4,1.8-1.5,1.5-2.7l-1.7-5.8c-0.2,0.4-0.3,0.7-0.5,1.1L110.8,85.8z"/>
	<path class="st4" d="M108.7,78.5l0.3,1.2c0.2-0.4,0.3-0.7,0.5-1.1l-0.3-1.2C109,77.8,108.9,78.2,108.7,78.5z"/>
	<path class="st4" d="M106.9,82.4c-0.2,0.4-0.3,0.7-0.5,1.1l0.3,1.1c0.2-0.4,0.3-0.7,0.5-1.1L106.9,82.4z"/>
	<path class="st4" d="M109.4,80.8c0.2-0.4,0.3-0.7,0.5-1.1l-0.3-1.2c-0.2,0.4-0.3,0.7-0.5,1.1L109.4,80.8z"/>
	<path class="st4" d="M107.3,83.5c-0.2,0.4-0.3,0.7-0.5,1.1l0.3,1.1c0.2-0.4,0.3-0.7,0.5-1.1L107.3,83.5z"/>
	<path class="st4" d="M89.9,60.3l10.2,34.9c0.2-0.3,0.4-0.6,0.6-0.9l-9.8-33.6C90.5,60.6,90.2,60.4,89.9,60.3z"/>
	<path class="st4" d="M96.2,63.5l7.5,25.6c0.2-0.3,0.3-0.7,0.5-1l-7-24C96.8,63.9,96.5,63.7,96.2,63.5z"/>
	<path class="st4" d="M105.4,95.1c0.3,1.1-0.3,2.3-1.4,2.6c-1.2,0.4-2.4-0.3-2.7-1.4l0-0.1c-0.2,0.3-0.4,0.5-0.5,0.8
		c0.6,1.3,2.1,1.9,3.5,1.5c1.5-0.5,2.4-2.1,2-3.6l-1.4-4.6c-0.2,0.3-0.4,0.7-0.5,1L105.4,95.1z"/>
	<path class="st4" d="M103.7,89.1l0.3,1.1c0.2-0.3,0.4-0.7,0.5-1l-0.3-1.1C104,88.4,103.8,88.8,103.7,89.1z"/>
	<path class="st4" d="M100.1,95.2l0.3,1c0.2-0.3,0.4-0.6,0.6-0.8l-0.3-1C100.5,94.6,100.3,94.9,100.1,95.2z"/>
	<path class="st4" d="M101,95.3c-0.2,0.3-0.4,0.6-0.6,0.8l0.1,0.4c0,0.2,0.1,0.3,0.2,0.5c0.2-0.3,0.4-0.5,0.5-0.8L101,95.3z"/>
	<path class="st4" d="M104,90.2l0.3,1.1c0.2-0.3,0.4-0.7,0.5-1l-0.3-1.1C104.3,89.5,104.2,89.9,104,90.2z"/>
	<path class="st4" d="M90.9,60.7l9.8,33.6c0.2-0.3,0.4-0.6,0.6-0.9l-9.4-32.2C91.5,61,91.2,60.9,90.9,60.7z"/>
	<path class="st4" d="M95.2,62.9l7.9,27.2c0.2-0.3,0.4-0.7,0.5-1l-7.5-25.6C95.8,63.3,95.5,63.1,95.2,62.9z"/>
	<path class="st4" d="M104.7,95.4c0.2,0.7-0.2,1.5-0.9,1.7c-0.8,0.2-1.5-0.2-1.7-0.9l-0.2-0.7c-0.2,0.3-0.4,0.6-0.6,0.9l0,0.1
		c0.3,1.1,1.5,1.8,2.7,1.4c1.1-0.3,1.8-1.5,1.4-2.6l-1.1-3.9c-0.2,0.3-0.4,0.6-0.5,1L104.7,95.4z"/>
	<path class="st4" d="M101.2,93.4c-0.2,0.3-0.4,0.6-0.6,0.9l0.3,1c0.2-0.3,0.4-0.6,0.6-0.9L101.2,93.4z"/>
	<path class="st4" d="M103.1,90.1l0.3,1.1c0.2-0.3,0.4-0.6,0.5-1l-0.3-1.1C103.5,89.4,103.3,89.8,103.1,90.1z"/>
	<path class="st4" d="M103.8,92.2c0.2-0.3,0.4-0.6,0.5-1l-0.3-1.1c-0.2,0.3-0.4,0.7-0.5,1L103.8,92.2z"/>
	<path class="st4" d="M101.5,94.4c-0.2,0.3-0.4,0.6-0.6,0.9l0.3,1c0.2-0.3,0.4-0.6,0.6-0.9L101.5,94.4z"/>
	<path class="st4" d="M86,58.8l11.6,39.7c0.2-0.2,0.4-0.5,0.6-0.7L86.9,59.1C86.6,59,86.3,58.9,86,58.8z"/>
	<path class="st4" d="M80.3,57.8l13,44.6c0.2-0.2,0.5-0.3,0.7-0.5L81.1,57.9C80.8,57.9,80.5,57.9,80.3,57.8z"/>
	<path class="st4" d="M98.8,102.7c0.3,1.1-0.4,2.4-1.5,2.7c-1.1,0.3-2.4-0.4-2.7-1.5l-0.1-0.3c-0.2,0.2-0.5,0.3-0.7,0.5l0,0.1
		c0.5,1.6,2.2,2.5,3.7,2c1.6-0.5,2.5-2.2,2-3.7l-0.8-2.8c-0.2,0.2-0.4,0.5-0.6,0.7L98.8,102.7z"/>
	<path class="st4" d="M97.6,98.5l0.3,0.9c0.2-0.2,0.4-0.5,0.6-0.7l-0.3-0.9C98,98.1,97.8,98.3,97.6,98.5z"/>
	<path class="st4" d="M93.3,102.5l0.2,0.8c0.2-0.2,0.5-0.3,0.7-0.5L94,102C93.8,102.1,93.5,102.3,93.3,102.5z"/>
	<path class="st4" d="M97.8,99.4l0.3,0.9c0.2-0.2,0.4-0.5,0.6-0.7l-0.3-0.9C98.2,99,98,99.2,97.8,99.4z"/>
	<path class="st4" d="M94.2,102.8c-0.2,0.2-0.5,0.3-0.7,0.5l0.2,0.8c0.2-0.1,0.5-0.3,0.7-0.5L94.2,102.8z"/>
	<path class="st4" d="M85.1,58.6L97,99.2c0.2-0.2,0.4-0.5,0.6-0.7L86,58.8C85.7,58.8,85.4,58.7,85.1,58.6z"/>
	<path class="st4" d="M81.1,57.9L94,102c0.2-0.2,0.4-0.3,0.7-0.5L81.9,58C81.7,57.9,81.4,57.9,81.1,57.9z"/>
	<path class="st4" d="M98,102.9c0.2,0.7-0.2,1.5-1,1.8c-0.7,0.2-1.5-0.3-1.8-1l-0.2-0.6c-0.2,0.2-0.4,0.3-0.7,0.5l0.1,0.3
		c0.3,1.1,1.6,1.8,2.7,1.5c1.1-0.3,1.8-1.6,1.5-2.7l-0.7-2.3c-0.2,0.2-0.4,0.4-0.6,0.7L98,102.9z"/>
	<path class="st4" d="M97,99.2l0.3,0.9c0.2-0.2,0.4-0.4,0.6-0.7l-0.3-0.9C97.4,98.8,97.2,99,97,99.2z"/>
	<path class="st4" d="M94.6,101.4c-0.2,0.2-0.4,0.4-0.7,0.5l0.2,0.8c0.2-0.2,0.4-0.3,0.7-0.5L94.6,101.4z"/>
	<path class="st4" d="M97.5,101c0.2-0.2,0.4-0.4,0.6-0.7l-0.3-0.9c-0.2,0.2-0.4,0.5-0.6,0.7L97.5,101z"/>
	<path class="st4" d="M94.9,102.3c-0.2,0.2-0.4,0.3-0.7,0.5l0.2,0.8c0.2-0.2,0.5-0.3,0.7-0.5L94.9,102.3z"/>
	<path class="st4" d="M76.8,58.1l13.5,46.1c0.2-0.1,0.5-0.2,0.7-0.3L77.6,57.9C77.3,58,77.1,58,76.8,58.1z"/>
	<path class="st4" d="M71.9,59.7l13.4,45.7c0.3,0,0.5-0.1,0.8-0.1l-13.4-46C72.4,59.4,72.2,59.5,71.9,59.7z"/>
	<path class="st4" d="M91.3,107.8c0.3,1.1-0.3,2.3-1.5,2.7c-1.1,0.3-2.3-0.3-2.6-1.4l-0.6-2.2c-0.3,0-0.5,0.1-0.8,0.1l0.7,2.3
		c0.5,1.5,2.1,2.4,3.6,2c1.6-0.5,2.5-2.1,2.1-3.6l-0.7-2.2c-0.2,0.1-0.5,0.2-0.7,0.3L91.3,107.8z"/>
	<path class="st4" d="M85.3,105.4l0.2,0.8c0.3,0,0.5-0.1,0.8-0.1l-0.2-0.8C85.8,105.3,85.6,105.4,85.3,105.4z"/>
	<path class="st4" d="M90.3,104.1l0.2,0.8c0.2-0.1,0.5-0.2,0.7-0.3l-0.2-0.8C90.8,103.9,90.5,104,90.3,104.1z"/>
	<path class="st4" d="M90.5,104.9l0.2,0.8c0.2-0.1,0.5-0.2,0.7-0.3l-0.2-0.8C91,104.7,90.7,104.8,90.5,104.9z"/>
	<path class="st4" d="M86.3,106.1c-0.3,0-0.5,0.1-0.8,0.1l0.2,0.8c0.3,0,0.5-0.1,0.8-0.1L86.3,106.1z"/>
	<path class="st4" d="M72.7,59.3l13.4,46c0.3,0,0.5-0.1,0.8-0.1L73.4,59C73.1,59.1,72.9,59.2,72.7,59.3z"/>
	<path class="st4" d="M76,58.2l13.5,46.2c0.2-0.1,0.5-0.2,0.7-0.3L76.8,58.1C76.5,58.1,76.3,58.1,76,58.2z"/>
	<path class="st4" d="M90.6,108c0.2,0.7-0.2,1.5-1,1.7c-0.7,0.2-1.4-0.2-1.7-0.9l-0.6-2.1c-0.3,0.1-0.5,0.1-0.8,0.1l0.6,2.2
		c0.3,1.1,1.5,1.8,2.6,1.4c1.2-0.4,1.8-1.5,1.5-2.7l-0.6-2.1c-0.2,0.1-0.5,0.2-0.7,0.3L90.6,108z"/>
	<path class="st4" d="M86.9,105.2c-0.3,0.1-0.5,0.1-0.8,0.1l0.2,0.8c0.3,0,0.5-0.1,0.8-0.1L86.9,105.2z"/>
	<path class="st4" d="M89.5,104.4l0.2,0.8c0.2-0.1,0.5-0.2,0.7-0.3l-0.2-0.8C90,104.2,89.8,104.3,89.5,104.4z"/>
	<path class="st4" d="M90,105.9c0.2-0.1,0.5-0.2,0.7-0.3l-0.2-0.8c-0.2,0.1-0.5,0.2-0.7,0.3L90,105.9z"/>
	<path class="st4" d="M87.1,105.9c-0.3,0.1-0.5,0.1-0.8,0.1l0.2,0.8c0.3,0,0.5-0.1,0.8-0.1L87.1,105.9z"/>
	<path class="st4" d="M23.7,86.6c-0.3-0.2-0.6-0.3-1-0.5l6.8,23.4c0.2-0.3,0.4-0.6,0.6-0.9L23.7,86.6z"/>
	<path class="st4" d="M17.5,83.8c-0.3-0.1-0.6-0.3-0.9-0.4l9.3,31.8c0.2-0.3,0.4-0.6,0.6-0.8L17.5,83.8z"/>
	<path class="st4" d="M18.1,78.3c1.2-0.4,2.4,0.4,2.7,1.5l1.3,4.4c0.3,0.1,0.6,0.3,0.9,0.4l-1.5-5c-0.5-1.6-2.1-2.5-3.7-2
		c-1.5,0.5-2.4,2.1-2,3.7l0.1,0.2c0.3,0.1,0.6,0.3,0.9,0.4L16.7,81C16.4,79.9,17,78.6,18.1,78.3z"/>
	<path class="st4" d="M17.2,82.8c-0.3-0.1-0.6-0.3-0.9-0.4l0.3,1c0.3,0.1,0.6,0.3,0.9,0.4L17.2,82.8z"/>
	<path class="st4" d="M23.4,85.6c-0.3-0.2-0.6-0.3-1-0.5l0.3,1c0.3,0.2,0.6,0.3,1,0.5L23.4,85.6z"/>
	<path class="st4" d="M23.4,85.6l-0.3-1c-0.3-0.1-0.6-0.3-0.9-0.4l0.3,1C22.8,85.3,23.1,85.5,23.4,85.6z"/>
	<path class="st4" d="M16,81.5l0.3,1c0.3,0.1,0.6,0.3,0.9,0.4l-0.3-1C16.6,81.7,16.3,81.6,16,81.5z"/>
	<path class="st4" d="M22.7,86.2c-0.3-0.1-0.6-0.3-0.9-0.4l7.2,24.7c0.2-0.3,0.4-0.6,0.6-0.9L22.7,86.2z"/>
	<path class="st4" d="M18.5,84.2c-0.3-0.1-0.6-0.3-0.9-0.4l8.9,30.6c0.2-0.3,0.4-0.6,0.6-0.9L18.5,84.2z"/>
	<path class="st4" d="M18.3,79.1c0.7-0.2,1.5,0.2,1.8,1l1.1,3.7c0.3,0.1,0.6,0.3,0.9,0.4l-1.3-4.4c-0.3-1.1-1.5-1.8-2.7-1.5
		c-1.1,0.3-1.8,1.6-1.4,2.7l0.2,0.8c0.3,0.1,0.6,0.3,0.9,0.4l-0.4-1.5C17.2,80.1,17.7,79.3,18.3,79.1z"/>
	<path class="st4" d="M18.2,83.2c-0.3-0.1-0.6-0.3-0.9-0.4l0.3,1c0.3,0.1,0.6,0.3,0.9,0.4L18.2,83.2z"/>
	<path class="st4" d="M22.4,85.2c-0.3-0.1-0.6-0.3-0.9-0.4l0.3,1c0.3,0.1,0.6,0.3,0.9,0.4L22.4,85.2z"/>
	<path class="st4" d="M22.1,84.2c-0.3-0.1-0.6-0.3-0.9-0.4l0.3,1c0.3,0.1,0.6,0.3,0.9,0.4L22.1,84.2z"/>
	<path class="st4" d="M17.9,82.3c-0.3-0.1-0.6-0.3-0.9-0.4l0.3,1c0.3,0.1,0.6,0.3,0.9,0.4L17.9,82.3z"/>
	<path class="st4" d="M33.3,91.7l2.2,7.6c0.2-0.3,0.4-0.7,0.5-1l-1.8-6C33.9,92,33.6,91.9,33.3,91.7z"/>
	<path class="st4" d="M26.8,88.2l5.1,17.4c0.2-0.3,0.4-0.6,0.5-0.9l-4.7-16C27.5,88.6,27.2,88.4,26.8,88.2z"/>
	<path class="st4" d="M26.8,85.1c-0.3-1.1,0.4-2.3,1.5-2.7c1.1-0.3,2.4,0.3,2.7,1.4l1.6,5.6c0.3,0.2,0.7,0.4,1,0.5l-1.9-6.4
		c-0.5-1.5-2.1-2.4-3.7-2c-1.6,0.5-2.5,2.1-2.1,3.6l0.2,0.8c0.3,0.2,0.6,0.3,1,0.5L26.8,85.1z"/>
	<path class="st4" d="M27.8,88.7l-0.3-1c-0.3-0.2-0.6-0.3-1-0.5l0.3,1C27.2,88.4,27.5,88.6,27.8,88.7z"/>
	<path class="st4" d="M34.3,92.2l-0.3-1.1c-0.3-0.2-0.7-0.4-1-0.6l0.3,1.1C33.6,91.9,33.9,92,34.3,92.2z"/>
	<path class="st4" d="M33,90.6c0.3,0.2,0.7,0.4,1,0.6l-0.3-1.1c-0.3-0.2-0.7-0.4-1-0.5L33,90.6z"/>
	<path class="st4" d="M27.5,87.7l-0.3-1c-0.3-0.2-0.6-0.3-1-0.5l0.3,1C26.9,87.3,27.2,87.5,27.5,87.7z"/>
	<path class="st4" d="M27.8,88.7l4.7,16c0.2-0.3,0.4-0.6,0.5-0.9l-4.2-14.5C28.5,89.1,28.1,88.9,27.8,88.7z"/>
	<path class="st4" d="M32.3,91.1l2.7,9.1c0.2-0.3,0.4-0.7,0.5-1l-2.2-7.6C32.9,91.5,32.6,91.3,32.3,91.1z"/>
	<path class="st4" d="M27.5,84.9c-0.2-0.7,0.2-1.5,1-1.7c0.7-0.2,1.5,0.2,1.7,0.9l1.4,4.9c0.3,0.2,0.7,0.4,1,0.5L31,83.9
		c-0.3-1.1-1.6-1.8-2.7-1.4c-1.1,0.3-1.8,1.5-1.5,2.7l0.4,1.5c0.3,0.2,0.6,0.3,1,0.5L27.5,84.9z"/>
	<path class="st4" d="M32.3,91.1c0.3,0.2,0.7,0.4,1,0.5L33,90.6c-0.3-0.2-0.6-0.4-1-0.5L32.3,91.1z"/>
	<path class="st4" d="M28.8,89.2l-0.3-1.1c-0.3-0.2-0.6-0.3-1-0.5l0.3,1C28.1,88.9,28.5,89.1,28.8,89.2z"/>
	<path class="st4" d="M28.2,87.1c-0.3-0.2-0.6-0.3-1-0.5l0.3,1c0.3,0.2,0.6,0.3,1,0.5L28.2,87.1z"/>
	<path class="st4" d="M32,90c0.3,0.2,0.7,0.4,1,0.5l-0.3-1.1c-0.3-0.2-0.6-0.4-1-0.5L32,90z"/>
	<path class="st4" d="M37.7,94.9c0.1-0.2,0.2-0.3,0.2-0.5c-0.2-0.1-0.3-0.2-0.5-0.3L37.7,94.9z"/>
	<path class="st4" d="M37.2,90.3c-0.3-1.1,0.3-2.3,1.5-2.7c0.8-0.2,1.7,0,2.2,0.7c0.1-0.3,0.2-0.5,0.4-0.8c-0.7-0.7-1.8-1-2.8-0.7
		c-1.6,0.5-2.5,2.1-2.1,3.6l0.4,1.4c0.3,0.2,0.7,0.4,1,0.6L37.2,90.3z"/>
	<path class="st4" d="M38,94.4c0.1-0.2,0.2-0.4,0.3-0.5l-0.1-0.3c-0.3-0.2-0.7-0.4-1-0.6l0.3,1.1C37.7,94.2,37.8,94.3,38,94.4z"/>
	<path class="st4" d="M38.2,93.6l-0.3-1.1c-0.3-0.2-0.7-0.4-1-0.6l0.3,1.1C37.5,93.2,37.9,93.4,38.2,93.6z"/>
	<path class="st4" d="M38.8,92.8L38,90c-0.2-0.7,0.2-1.5,1-1.7c0.7-0.2,1.3,0.1,1.6,0.8c0.1-0.3,0.3-0.6,0.4-0.9
		c-0.5-0.6-1.4-0.9-2.2-0.7c-1.2,0.4-1.8,1.5-1.5,2.7l0.7,2.2c0.3,0.2,0.6,0.3,0.8,0.5C38.7,92.9,38.7,92.9,38.8,92.8z"/>
	<path class="st4" d="M38.3,93.7c-0.1,0-0.1-0.1-0.2-0.1l0.1,0.3C38.3,93.8,38.3,93.8,38.3,93.7z"/>
	<path class="st4" d="M38.7,93c-0.3-0.2-0.5-0.3-0.8-0.5l0.3,1.1c0.1,0,0.1,0.1,0.2,0.1C38.5,93.5,38.6,93.2,38.7,93z"/>
	<path class="st4" d="M53.4,87.5l1.3,4.5c0.3,0.2,0.7,0.4,1,0.7l-1.8-6.3C53.7,86.7,53.5,87.1,53.4,87.5z"/>
	<path class="st4" d="M56.6,80.3l4.7,16c0.3,0.2,0.7,0.4,1,0.6l-5.2-17.7C56.9,79.6,56.8,79.9,56.6,80.3z"/>
	<path class="st4" d="M60.4,100.9c-1.2,0.4-2.4-0.4-2.7-1.5L56.4,95c-0.1-0.1-0.2-0.2-0.4-0.2c-0.2-0.1-0.4-0.3-0.6-0.4l1.5,5.3
		c0.5,1.6,2.1,2.5,3.7,2c1.2-0.3,2-1.4,2.1-2.6c-0.3-0.2-0.5-0.3-0.8-0.5C62,99.6,61.4,100.6,60.4,100.9z"/>
	<path class="st4" d="M62.3,96.9c-0.3-0.2-0.7-0.4-1-0.6l0.3,1.2c0.3,0.2,0.7,0.4,1,0.6c0,0,0-0.1,0-0.1L62.3,96.9z"/>
	<path class="st4" d="M54.7,92l0.3,1.2c0.3,0.2,0.7,0.4,1,0.7l-0.3-1.2C55.3,92.4,55,92.2,54.7,92z"/>
	<path class="st4" d="M56.4,95L56,93.8c-0.3-0.2-0.7-0.4-1-0.7l0.3,1.2c0.2,0.1,0.4,0.3,0.6,0.4C56.1,94.8,56.2,94.9,56.4,95z"/>
	<path class="st4" d="M61.6,97.4l0.2,0.7c0,0.1,0.1,0.3,0.1,0.4c0.3,0.2,0.5,0.3,0.8,0.5c0-0.3,0-0.6-0.1-1
		C62.3,97.9,61.9,97.6,61.6,97.4z"/>
	<path class="st4" d="M53.9,86.4l1.8,6.3c0.3,0.2,0.7,0.4,1,0.7l-2.4-8C54.2,85.6,54,86,53.9,86.4z"/>
	<path class="st4" d="M56.1,81.4l4.2,14.2c0.3,0.2,0.7,0.4,1,0.7l-4.7-16C56.4,80.7,56.3,81,56.1,81.4z"/>
	<path class="st4" d="M61,98.4c0.2,0.7-0.2,1.5-0.9,1.7c-0.7,0.2-1.5-0.2-1.8-1l-1-3.5c-0.3-0.2-0.7-0.4-1-0.7l1.3,4.4
		c0.3,1.1,1.5,1.8,2.7,1.5c1-0.3,1.6-1.3,1.5-2.3c-0.3-0.2-0.6-0.4-1-0.6L61,98.4z"/>
	<path class="st4" d="M57,94.5l-0.3-1.2c-0.3-0.2-0.7-0.4-1-0.7l0.3,1.2c0.1,0.1,0.2,0.1,0.3,0.2C56.6,94.2,56.8,94.3,57,94.5z"/>
	<path class="st4" d="M60.2,95.6l0.3,1.2c0.3,0.2,0.7,0.4,1,0.6l-0.3-1.2C60.9,96.1,60.6,95.8,60.2,95.6z"/>
	<path class="st4" d="M60.9,97.9c0.3,0.2,0.6,0.4,1,0.6c0-0.1,0-0.3-0.1-0.4l-0.2-0.7c-0.3-0.2-0.7-0.4-1-0.6L60.9,97.9z"/>
	<path class="st4" d="M57,94.5c-0.2-0.2-0.5-0.3-0.7-0.5c-0.1-0.1-0.2-0.1-0.3-0.2l0.3,1.2c0.3,0.2,0.7,0.4,1,0.7L57,94.5z"/>
	<path class="st4" d="M58.8,75.6L65.7,99c0.3,0.2,0.7,0.4,1,0.6l-7.3-25.1C59.2,74.9,59,75.3,58.8,75.6z"/>
	<path class="st4" d="M62.3,69.3l9.7,33.2c0.3,0.2,0.6,0.3,0.9,0.4L62.9,68.4C62.7,68.7,62.5,69,62.3,69.3z"/>
	<path class="st4" d="M72.7,104.7c0.3,1.1-0.3,2.3-1.5,2.7c-1.1,0.3-2.3-0.3-2.6-1.4l-1.2-4.1c-0.3-0.2-0.7-0.4-1-0.6l1.4,4.9
		c0.5,1.5,2.1,2.4,3.6,2c1.5-0.4,2.3-1.8,2.1-3.2c-0.3-0.1-0.6-0.3-0.9-0.4L72.7,104.7z"/>
	<path class="st4" d="M72,102.5l0.3,1c0.3,0.1,0.6,0.3,0.9,0.4l-0.3-1C72.6,102.8,72.3,102.7,72,102.5z"/>
	<path class="st4" d="M65.7,99l0.3,1.1c0.3,0.2,0.7,0.4,1,0.6l-0.3-1.1C66.3,99.4,66,99.2,65.7,99z"/>
	<path class="st4" d="M73.3,103.9c-0.3-0.1-0.6-0.3-0.9-0.4l0.3,1c0.3,0.1,0.6,0.3,0.9,0.4c0-0.1,0-0.3-0.1-0.4L73.3,103.9z"/>
	<path class="st4" d="M67,100.7c-0.3-0.2-0.7-0.4-1-0.6l0.3,1.1c0.3,0.2,0.7,0.4,1,0.6L67,100.7z"/>
	<path class="st4" d="M59.3,74.6l7.3,25.1c0.3,0.2,0.7,0.4,1,0.6l-7.8-26.7C59.7,73.9,59.5,74.2,59.3,74.6z"/>
	<path class="st4" d="M61.7,70.2l9.3,31.9c0.3,0.2,0.6,0.3,1,0.5l-9.7-33.2C62.1,69.6,61.9,69.9,61.7,70.2z"/>
	<path class="st4" d="M71.9,104.9c0.2,0.7-0.2,1.5-1,1.7c-0.7,0.2-1.5-0.2-1.7-0.9l-1-3.4c-0.3-0.2-0.7-0.4-1-0.5l1.2,4.1
		c0.3,1.1,1.5,1.8,2.6,1.4c1.2-0.4,1.8-1.5,1.5-2.7l-0.1-0.2c-0.3-0.1-0.6-0.3-0.9-0.4L71.9,104.9z"/>
	<path class="st4" d="M67.6,100.2c-0.3-0.2-0.7-0.4-1-0.6l0.3,1.1c0.3,0.2,0.7,0.4,1,0.6L67.6,100.2z"/>
	<path class="st4" d="M71.1,102l0.3,1c0.3,0.2,0.6,0.3,1,0.4l-0.3-1C71.7,102.4,71.4,102.2,71.1,102z"/>
	<path class="st4" d="M68,101.3c-0.3-0.2-0.7-0.4-1-0.6l0.3,1.1c0.3,0.2,0.7,0.4,1,0.5L68,101.3z"/>
	<path class="st4" d="M71.7,104.1c0.3,0.1,0.6,0.3,0.9,0.4l-0.3-1c-0.3-0.1-0.6-0.3-1-0.4L71.7,104.1z"/>
	<path class="st4" d="M69,61.5l12.8,43.9c0.3,0,0.6,0,0.8,0.1L69.6,61C69.4,61.2,69.2,61.4,69,61.5z"/>
	<path class="st4" d="M64.8,65.7L76,104.2c0.3,0.1,0.6,0.2,0.9,0.3L65.4,65C65.2,65.2,65,65.5,64.8,65.7z"/>
	<path class="st4" d="M82.4,107.5c0.3,1.1-0.4,2.4-1.5,2.7c-1.1,0.3-2.4-0.4-2.7-1.5l-0.7-2.4c-0.3-0.1-0.6-0.2-0.9-0.3l0.8,2.9
		c0.5,1.6,2.2,2.5,3.7,2c1.6-0.5,2.5-2.2,2-3.7l0-0.1c-0.3,0-0.6,0-0.8,0L82.4,107.5z"/>
	<path class="st4" d="M76,104.2l0.3,0.9c0.3,0.1,0.6,0.2,0.9,0.3l-0.3-0.9C76.6,104.4,76.3,104.3,76,104.2z"/>
	<path class="st4" d="M81.8,105.4l0.2,0.8c0.3,0,0.6,0,0.8,0l-0.2-0.8C82.4,105.5,82.1,105.5,81.8,105.4z"/>
	<path class="st4" d="M82,106.3l0.2,0.8c0.3,0,0.6,0,0.8,0l-0.2-0.8C82.6,106.3,82.3,106.3,82,106.3z"/>
	<path class="st4" d="M77.2,105.4c-0.3-0.1-0.6-0.2-0.9-0.3l0.3,0.9c0.3,0.1,0.6,0.2,0.9,0.3L77.2,105.4z"/>
	<path class="st4" d="M65.4,65l11.5,39.5c0.3,0.1,0.6,0.2,0.9,0.3L66,64.3C65.8,64.5,65.6,64.7,65.4,65z"/>
	<path class="st4" d="M68.3,62.1L81,105.3c0.3,0,0.6,0.1,0.8,0.1L69,61.5C68.7,61.7,68.5,61.9,68.3,62.1z"/>
	<path class="st4" d="M81.6,107.7c0.2,0.7-0.2,1.5-1,1.8c-0.7,0.2-1.5-0.2-1.8-1l-0.6-2c-0.3-0.1-0.6-0.1-0.9-0.2l0.7,2.4
		c0.3,1.1,1.6,1.8,2.7,1.5c1.1-0.3,1.8-1.6,1.5-2.7l-0.1-0.4c-0.3,0-0.6,0-0.8-0.1L81.6,107.7z"/>
	<path class="st4" d="M81,105.3l0.2,0.8c0.3,0,0.6,0.1,0.8,0.1l-0.2-0.8C81.5,105.4,81.2,105.4,81,105.3z"/>
	<path class="st4" d="M77.8,104.7c-0.3-0.1-0.6-0.2-0.9-0.3l0.3,0.9c0.3,0.1,0.6,0.2,0.9,0.2L77.8,104.7z"/>
	<path class="st4" d="M78.1,105.6c-0.3-0.1-0.6-0.2-0.9-0.2l0.3,0.9c0.3,0.1,0.6,0.2,0.9,0.2L78.1,105.6z"/>
	<path class="st4" d="M81.4,107c0.3,0,0.6,0,0.8,0.1l-0.2-0.8c-0.3,0-0.6,0-0.8-0.1L81.4,107z"/>
	<path class="st4" d="M108.7,71.4l0.2,0.1c0.7,0.5,1.5,1,2.2,1.5c0.1-0.2,0.2-0.5,0.3-0.7c-0.7-0.5-1.4-0.9-2.1-1.4
		c-0.5-0.3-1-0.7-1.5-1l0.3,1.2C108.3,71.2,108.5,71.3,108.7,71.4z"/>
	<path class="st4" d="M36,98.3l0.3,1.1c0.6-1.1,1.2-2.2,1.7-3.3l-0.3-1.1C37.2,96,36.6,97.1,36,98.3z"/>
	<path class="st4" d="M136.1,75.4l0.3,1.1c1,0.5,2.1,1.1,3.2,1.6l-0.3-1C138.2,76.5,137.2,75.9,136.1,75.4z"/>
	<path class="st4" d="M64.8,65.7l-0.3-0.9c-0.7,0.8-1.3,1.7-1.9,2.6l0.3,1C63.5,67.4,64.1,66.5,64.8,65.7z"/>
	<path class="st4" d="M45.1,81.1c7.4-16.6,12.6-28.3,27.2-32.4C86.7,44.6,99,52.8,114.5,63c0.3,0.2,0.6,0.4,0.9,0.6
		c0.1-0.2,0.2-0.5,0.3-0.7c-0.3-0.2-0.6-0.4-0.9-0.6l-0.5-0.3C98.9,51.8,86.7,43.7,72.1,47.9c-15.1,4.2-20.4,16.2-27.8,32.8
		l-0.2,0.4c-0.5,1.1-1,2.2-1.5,3.3c0.2,0.1,0.5,0.3,0.7,0.4C44,83.5,44.5,82.3,45.1,81.1z"/>
	<path class="st4" d="M24.3,134.1l-3.2-10.9c1.8-2.4,3.5-4.7,5.1-7l-0.3-1c-1.7,2.5-3.5,4.9-5.4,7.5c-0.2,0.2-0.2,0.5-0.1,0.7
		l3.2,10.9c0.1,0.3,0.3,0.5,0.6,0.5c0.3,0.1,0.6,0,0.8-0.3c10.4-12.4,17.3-23.9,22.5-34.3c-0.2-0.1-0.4-0.3-0.7-0.4
		C41.5,110.2,34.6,121.8,24.3,134.1z"/>
	<path class="st4" d="M58.8,75.6l-0.3-1.1c-0.6,1.2-1.2,2.4-1.7,3.6l0.3,1.1C57.7,78,58.2,76.8,58.8,75.6z"/>
	<path class="st4" d="M155.1,84.3l3.1,10.6c-14.8-3.8-27-10.1-37.5-16.6c-0.1,0.2-0.2,0.5-0.3,0.7c10.4,6.5,22.8,12.9,37.6,16.7
		c0.3,0.1,0.6,0,0.8-0.2c0.2-0.2,0.3-0.5,0.2-0.8l-3.1-10.6c-0.1-0.3-0.3-0.4-0.5-0.5c-3.1-1-6.1-2.1-9-3.3l0.3,1
		C149.4,82.3,152.2,83.4,155.1,84.3z"/>
	<path class="st4" d="M125.4,69.1l0.3,1.1c1.1,0.7,2.2,1.3,3.3,2l-0.3-1.1C127.5,70.5,126.4,69.8,125.4,69.1z"/>
	<path class="st4" d="M30.1,108.7l0.3,1c0.6-1,1.2-2,1.8-3l-0.3-1C31.4,106.6,30.8,107.7,30.1,108.7z"/>
	<path class="st4" d="M80.3,57.8L80,57c-0.9,0-1.8,0-2.7,0.1l0.2,0.8C78.5,57.8,79.4,57.8,80.3,57.8z"/>
	<path class="st4" d="M89.9,60.3l-0.3-1c-1-0.4-2-0.8-3-1.1l0.3,0.9C87.9,59.5,88.9,59.9,89.9,60.3z"/>
	<path class="st4" d="M71.9,59.7l-0.2-0.8c-0.8,0.4-1.6,0.8-2.3,1.3l0.2,0.8C70.4,60.5,71.1,60.1,71.9,59.7z"/>
	<path class="st4" d="M100.6,66.1l-0.3-1.1c-1.1-0.7-2.3-1.4-3.4-2l0.3,1.1C98.3,64.7,99.4,65.4,100.6,66.1z"/>
	<path class="st4" d="M53.4,87.5L53,86.3c-0.5,1.2-1,2.3-1.6,3.5c0.2,0.1,0.4,0.3,0.7,0.4C52.5,89.3,52.9,88.4,53.4,87.5z"/>
	<path class="st4" d="M50.8,91.3c-1.1,2.3-2.2,4.7-3.4,7.1c0.2,0.1,0.4,0.3,0.7,0.4c1.2-2.5,2.3-4.8,3.4-7.1
		C51.2,91.6,51,91.4,50.8,91.3z"/>
	<path class="st4" d="M118.1,64.4c-0.3-0.2-0.7-0.4-1-0.7c-0.1,0.2-0.2,0.5-0.3,0.7c0.5,0.3,0.9,0.6,1.4,0.9
		C118.1,65.1,118,64.8,118.1,64.4z"/>
	<path class="st4" d="M41.8,88.2c0.3-0.7,0.6-1.3,0.9-1.9c-0.2-0.1-0.5-0.3-0.7-0.4c-0.3,0.5-0.5,1.1-0.8,1.7
		C41.5,87.7,41.7,87.9,41.8,88.2z"/>
	<path class="st4" d="M112.5,73.9c2.1,1.4,4.3,2.8,6.6,4.3c0.1-0.2,0.2-0.5,0.3-0.7c-2.3-1.4-4.5-2.9-6.6-4.3
		C112.7,73.4,112.6,73.7,112.5,73.9z"/>
	<path class="st4" d="M120.1,77.9c-0.1,0.2-0.2,0.5-0.3,0.7c0.2,0.1,0.4,0.3,0.7,0.4c0.1-0.2,0.2-0.5,0.3-0.7
		C120.5,78.2,120.3,78,120.1,77.9z"/>
	<path class="st4" d="M43.1,85.5c0.1-0.2,0.2-0.5,0.3-0.7c-0.2-0.1-0.4-0.3-0.7-0.4c-0.1,0.2-0.2,0.5-0.3,0.7
		C42.6,85.3,42.8,85.4,43.1,85.5z"/>
	<path class="st4" d="M116.1,64.1c0.1-0.2,0.2-0.5,0.3-0.7c-0.2-0.1-0.4-0.3-0.7-0.4c-0.1,0.2-0.2,0.5-0.3,0.7
		C115.6,63.8,115.9,63.9,116.1,64.1z"/>
	<path class="st4" d="M111.1,73c0.2,0.1,0.4,0.3,0.7,0.4c0.1-0.2,0.2-0.5,0.3-0.7c-0.2-0.1-0.4-0.3-0.7-0.4
		C111.3,72.5,111.2,72.8,111.1,73z"/>
	<path class="st4" d="M47,99.2c-0.1,0.2-0.2,0.5-0.4,0.7c0.2,0.1,0.4,0.3,0.7,0.4c0.1-0.2,0.2-0.5,0.4-0.7
		C47.5,99.4,47.3,99.3,47,99.2z"/>
	<path class="st4" d="M51.4,89.9c-0.1,0.2-0.2,0.5-0.3,0.7c0.2,0.1,0.4,0.3,0.7,0.4c0.1-0.2,0.2-0.5,0.3-0.7
		C51.9,90.1,51.7,90,51.4,89.9z"/>
	<path class="st4" d="M51.1,90.6c-0.1,0.2-0.2,0.5-0.3,0.7c0.2,0.1,0.4,0.3,0.7,0.4c0.1-0.2,0.2-0.5,0.3-0.7
		C51.5,90.9,51.3,90.7,51.1,90.6z"/>
	<path class="st4" d="M119.4,77.5c-0.1,0.2-0.2,0.5-0.3,0.7c0.2,0.1,0.4,0.3,0.7,0.4c0.1-0.2,0.2-0.5,0.3-0.7
		C119.9,77.7,119.6,77.6,119.4,77.5z"/>
	<path class="st4" d="M111.8,73.5c0.2,0.1,0.4,0.3,0.7,0.4c0.1-0.2,0.2-0.5,0.3-0.7c-0.2-0.1-0.4-0.3-0.7-0.4
		C112,73,111.9,73.2,111.8,73.5z"/>
	<path class="st4" d="M42.7,86.3c0.1-0.2,0.2-0.5,0.3-0.7c-0.2-0.1-0.5-0.3-0.7-0.4c-0.1,0.2-0.2,0.5-0.3,0.7
		C42.3,86,42.5,86.1,42.7,86.3z"/>
	<path class="st4" d="M117.1,63.8c-0.2-0.1-0.4-0.3-0.7-0.4c-0.1,0.2-0.2,0.5-0.3,0.7c0.2,0.1,0.4,0.3,0.7,0.4
		C116.9,64.3,117,64,117.1,63.8z"/>
	<path class="st4" d="M47.4,98.4c-0.1,0.2-0.2,0.5-0.4,0.7c0.2,0.1,0.4,0.3,0.7,0.4c0.1-0.2,0.2-0.5,0.4-0.7
		C47.8,98.7,47.6,98.6,47.4,98.4z"/>
	<path class="st4" d="M141.5,78.9c1.1,0.5,2.2,1,3.3,1.5l-0.3-1c-1.1-0.5-2.2-1-3.3-1.5L141.5,78.9z"/>
	<path class="st4" d="M145.8,80.8c0.3,0.1,0.6,0.3,0.9,0.4l-0.3-1c-0.3-0.1-0.6-0.3-0.9-0.4L145.8,80.8z"/>
	<path class="st4" d="M139.6,78c0.3,0.2,0.6,0.3,1,0.5l-0.3-1c-0.3-0.2-0.6-0.3-1-0.5L139.6,78z"/>
	<path class="st4" d="M140.6,78.5c0.3,0.2,0.6,0.3,1,0.4l-0.3-1c-0.3-0.2-0.6-0.3-1-0.5L140.6,78.5z"/>
	<path class="st4" d="M144.8,80.4c0.3,0.1,0.6,0.3,0.9,0.4l-0.3-1c-0.3-0.1-0.6-0.3-0.9-0.4L144.8,80.4z"/>
	<path class="st4" d="M131,73.4c1.2,0.7,2.3,1.3,3.5,2l-0.3-1.1c-1.2-0.7-2.4-1.3-3.5-2L131,73.4z"/>
	<path class="st4" d="M135.1,74.8l0.3,1.1c0.3,0.2,0.6,0.3,1,0.5l-0.3-1.1C135.8,75.2,135.5,75,135.1,74.8z"/>
	<path class="st4" d="M128.7,71.1l0.3,1.1c0.3,0.2,0.7,0.4,1,0.6l-0.3-1.1C129.3,71.5,129,71.3,128.7,71.1z"/>
	<path class="st4" d="M134.2,74.3l0.3,1.1c0.3,0.2,0.6,0.3,1,0.5l-0.3-1.1C134.8,74.7,134.5,74.5,134.2,74.3z"/>
	<path class="st4" d="M130.6,72.3c-0.3-0.2-0.7-0.4-1-0.6l0.3,1.1c0.3,0.2,0.7,0.4,1,0.6L130.6,72.3z"/>
	<path class="st4" d="M123.5,68.5l-0.2-0.6c-1.2-0.8-2.4-1.5-3.5-2.3l0.3,1.2c1.1,0.7,2.1,1.4,3.2,2.1
		C123.4,68.7,123.5,68.6,123.5,68.5z"/>
	<path class="st4" d="M123.7,69l-0.2-0.6c-0.1,0.1-0.1,0.2-0.2,0.4C123.5,68.9,123.6,68.9,123.7,69z"/>
	<path class="st4" d="M125,68.9c-0.1,0.2-0.2,0.5-0.3,0.7c0.3,0.2,0.7,0.4,1,0.6l-0.3-1.1C125.3,69.1,125.2,69,125,68.9z"/>
	<path class="st4" d="M118.9,65.4c0-0.1-0.1-0.3-0.1-0.4c-0.3-0.2-0.5-0.3-0.8-0.5c0,0.3,0,0.7,0.1,1c0.3,0.2,0.7,0.4,1,0.7
		L118.9,65.4z"/>
	<path class="st4" d="M124.7,69.6C124.7,69.6,124.7,69.6,124.7,69.6c0.1-0.2,0.2-0.5,0.3-0.7c-0.2-0.1-0.4-0.3-0.7-0.4c0,0,0,0,0,0
		L124.7,69.6z"/>
	<path class="st4" d="M124.4,68.5C124.4,68.5,124.4,68.5,124.4,68.5L124.4,68.5C124.4,68.5,124.4,68.5,124.4,68.5z"/>
	<path class="st4" d="M123.7,68.1c-0.1-0.1-0.2-0.1-0.3-0.2l0.2,0.6C123.6,68.3,123.6,68.2,123.7,68.1z"/>
	<path class="st4" d="M119.8,65.6c-0.3-0.2-0.6-0.4-1-0.6c0,0.1,0,0.3,0.1,0.4l0.2,0.7c0.3,0.2,0.7,0.4,1,0.7L119.8,65.6z"/>
	<path class="st4" d="M124.4,68.5c-0.1,0.2-0.2,0.5-0.3,0.7c0.2,0.1,0.4,0.3,0.7,0.4L124.4,68.5z"/>
	<path class="st4" d="M123.5,68.5l0.2,0.6c0.1,0.1,0.2,0.1,0.3,0.2c0.1-0.2,0.2-0.5,0.3-0.7l0,0c-0.2-0.1-0.4-0.3-0.7-0.4
		C123.6,68.2,123.6,68.3,123.5,68.5z"/>
	<path class="st4" d="M105.8,68.6c-1.2-0.8-2.4-1.6-3.5-2.3l0.3,1.1c1.2,0.7,2.3,1.5,3.5,2.3L105.8,68.6z"/>
	<path class="st4" d="M108.1,71.1l-0.3-1.2c-0.3-0.2-0.7-0.4-1-0.7l0.3,1.2C107.5,70.6,107.8,70.8,108.1,71.1z"/>
	<path class="st4" d="M101.6,66.8l-0.3-1.1c-0.3-0.2-0.7-0.4-1-0.6l0.3,1.1C100.9,66.3,101.2,66.6,101.6,66.8z"/>
	<path class="st4" d="M106.1,69.7c0.3,0.2,0.7,0.4,1,0.7l-0.3-1.2c-0.3-0.2-0.7-0.4-1-0.7L106.1,69.7z"/>
	<path class="st4" d="M102.6,67.4l-0.3-1.1c-0.3-0.2-0.7-0.4-1-0.6l0.3,1.1C101.9,67,102.2,67.2,102.6,67.4z"/>
	<path class="st4" d="M95.2,62.9l-0.3-1.1c-1.1-0.6-2.3-1.2-3.4-1.7l0.3,1C92.9,61.7,94,62.3,95.2,62.9z"/>
	<path class="st4" d="M97.2,64.1L96.8,63c-0.3-0.2-0.7-0.4-1-0.6l0.3,1.1C96.5,63.7,96.8,63.9,97.2,64.1z"/>
	<path class="st4" d="M90.9,60.7l-0.3-1c-0.3-0.1-0.6-0.3-0.9-0.4l0.3,1C90.2,60.4,90.5,60.6,90.9,60.7z"/>
	<path class="st4" d="M95.2,62.9c0.3,0.2,0.7,0.4,1,0.6l-0.3-1.1c-0.3-0.2-0.7-0.4-1-0.5L95.2,62.9z"/>
	<path class="st4" d="M91.8,61.2l-0.3-1c-0.3-0.1-0.6-0.3-0.9-0.4l0.3,1C91.2,60.9,91.5,61,91.8,61.2z"/>
	<path class="st4" d="M84.8,57.7c-1.1-0.3-2.1-0.5-3.1-0.6l0.2,0.8c1,0.1,2.1,0.3,3.1,0.6L84.8,57.7z"/>
	<path class="st4" d="M86.9,59.1l-0.3-0.9C86.3,58.1,86,58,85.7,58l0.3,0.9C86.3,58.9,86.6,59,86.9,59.1z"/>
	<path class="st4" d="M81.1,57.9l-0.2-0.8c-0.3,0-0.6,0-0.8,0l0.2,0.8C80.5,57.9,80.8,57.9,81.1,57.9z"/>
	<path class="st4" d="M85.1,58.6c0.3,0.1,0.6,0.2,0.9,0.3L85.7,58c-0.3-0.1-0.6-0.2-0.9-0.2L85.1,58.6z"/>
	<path class="st4" d="M81.9,58l-0.2-0.8c-0.3,0-0.6-0.1-0.8-0.1l0.2,0.8C81.4,57.9,81.7,57.9,81.9,58z"/>
	<path class="st4" d="M76,58.2l-0.2-0.8c-0.3,0.1-0.6,0.1-0.9,0.2c-0.6,0.2-1.2,0.4-1.7,0.6l0.2,0.8c0.6-0.2,1.1-0.4,1.7-0.6
		C75.4,58.4,75.7,58.3,76,58.2z"/>
	<path class="st4" d="M77.6,57.9l-0.2-0.8c-0.3,0-0.5,0.1-0.8,0.1l0.2,0.8C77.1,58,77.3,58,77.6,57.9z"/>
	<path class="st4" d="M72.7,59.3l-0.2-0.8c-0.2,0.1-0.5,0.2-0.7,0.3l0.2,0.8C72.2,59.5,72.4,59.4,72.7,59.3z"/>
	<path class="st4" d="M76,58.2c0.3-0.1,0.5-0.1,0.8-0.1l-0.2-0.8c-0.3,0-0.5,0.1-0.8,0.2L76,58.2z"/>
	<path class="st4" d="M73.4,59l-0.2-0.8c-0.2,0.1-0.5,0.2-0.7,0.3l0.2,0.8C72.9,59.2,73.1,59.1,73.4,59z"/>
	<path class="st4" d="M29,110.5c-0.6,1-1.3,2-2,3.1l0.3,1c0.7-1,1.3-2,2-3L29,110.5z"/>
	<path class="st4" d="M26.8,115.4l-0.3-1c-0.2,0.3-0.4,0.6-0.6,0.8l0.3,1C26.4,115.9,26.6,115.6,26.8,115.4z"/>
	<path class="st4" d="M29.6,109.6l0.3,1c0.2-0.3,0.4-0.6,0.6-0.9l-0.3-1C29.9,109,29.8,109.3,29.6,109.6z"/>
	<path class="st4" d="M29.6,109.6c-0.2,0.3-0.4,0.6-0.6,0.9l0.3,1c0.2-0.3,0.4-0.6,0.6-0.9L29.6,109.6z"/>
	<path class="st4" d="M27,113.5c-0.2,0.3-0.4,0.6-0.6,0.9l0.3,1c0.2-0.3,0.4-0.6,0.6-0.8L27,113.5z"/>
	<path class="st4" d="M33,103.8l0.3,1.1c0.7-1.2,1.3-2.3,1.9-3.5l-0.3-1.1C34.3,101.4,33.7,102.6,33,103.8z"/>
	<path class="st4" d="M31.9,105.6l0.3,1c0.2-0.3,0.4-0.6,0.5-0.9l-0.3-1C32.3,105,32.1,105.3,31.9,105.6z"/>
	<path class="st4" d="M35.5,99.3l0.3,1.1c0.2-0.3,0.4-0.7,0.5-1L36,98.3C35.8,98.6,35.7,98.9,35.5,99.3z"/>
	<path class="st4" d="M35,100.3l0.3,1.1c0.2-0.3,0.4-0.7,0.5-1l-0.3-1.1C35.3,99.6,35.1,99.9,35,100.3z"/>
	<path class="st4" d="M33,103.8c-0.2,0.3-0.4,0.6-0.5,0.9l0.3,1c0.2-0.3,0.4-0.6,0.5-0.9L33,103.8z"/>
	<path class="st4" d="M38.8,93.1c0.2,0.1,0.3,0.2,0.5,0.3c0.5-1.1,1-2.1,1.5-3.2l-0.3-1c0-0.1,0-0.1-0.1-0.1
		c-0.6,1.2-1.2,2.4-1.8,3.7L38.8,93.1z"/>
	<path class="st4" d="M39.4,93.4c-0.2-0.1-0.3-0.2-0.5-0.3l0.2,0.9C39.2,93.8,39.3,93.6,39.4,93.4z"/>
	<path class="st4" d="M38,94.4c-0.1,0.2-0.2,0.3-0.2,0.5l0.3,1.1c0.2-0.3,0.3-0.7,0.5-1l-0.1-0.3C38.3,94.6,38.2,94.5,38,94.4z"/>
	<path class="st4" d="M41.4,89l0,0.1c0.2-0.3,0.3-0.6,0.5-1c-0.1-0.3-0.3-0.5-0.5-0.7c-0.1,0.3-0.2,0.5-0.4,0.8
		C41.1,88.5,41.3,88.8,41.4,89z"/>
	<path class="st4" d="M38,94.4c0.2,0.1,0.3,0.2,0.5,0.3l-0.3-0.9C38.2,94.1,38.1,94.2,38,94.4z"/>
	<path class="st4" d="M38.5,94.7l0.1,0.3c0-0.1,0.1-0.1,0.1-0.2C38.6,94.8,38.6,94.8,38.5,94.7z"/>
	<path class="st4" d="M40.9,88.3c-0.1,0.3-0.3,0.6-0.4,0.9c0,0,0,0.1,0.1,0.1l0.3,1c0.2-0.4,0.3-0.7,0.5-1.1l0-0.1
		C41.3,88.8,41.1,88.5,40.9,88.3z"/>
	<path class="st4" d="M38.8,92.8c0,0.1-0.1,0.1-0.1,0.2c0.1,0,0.1,0.1,0.2,0.1L38.8,92.8z"/>
	<path class="st4" d="M38.3,93.7c0,0.1-0.1,0.1-0.1,0.2l0.3,0.9c0.1,0,0.1,0.1,0.2,0.1c0.1-0.2,0.2-0.5,0.4-0.7
		C38.8,94,38.6,93.8,38.3,93.7z"/>
	<path class="st4" d="M39.1,94l-0.2-0.9c-0.1,0-0.1-0.1-0.2-0.1c-0.1,0.2-0.2,0.5-0.3,0.7c0.2,0.1,0.5,0.3,0.7,0.4
		C39,94.1,39.1,94,39.1,94z"/>
	<path class="st4" d="M56.1,81.4l-0.3-1.2c-0.6,1.2-1.1,2.5-1.7,3.9l0.3,1.2c0-0.1,0.1-0.1,0.1-0.2C55,83.8,55.5,82.6,56.1,81.4z"/>
	<path class="st4" d="M53.9,86.4l-0.3-1.2c-0.2,0.4-0.3,0.7-0.5,1.1l0.3,1.2C53.5,87.1,53.7,86.7,53.9,86.4z"/>
	<path class="st4" d="M57.1,79.2l-0.3-1.1c-0.2,0.4-0.3,0.7-0.5,1.1l0.3,1.2C56.8,79.9,56.9,79.6,57.1,79.2z"/>
	<path class="st4" d="M54.3,85.3L54,84.1c-0.1,0.3-0.2,0.5-0.3,0.8c0,0.1-0.1,0.2-0.1,0.3l0.3,1.2C54,86,54.2,85.6,54.3,85.3z"/>
	<path class="st4" d="M56.1,81.4c0.2-0.4,0.3-0.7,0.5-1.1l-0.3-1.2c-0.2,0.4-0.3,0.7-0.5,1.1L56.1,81.4z"/>
	<path class="st4" d="M61.7,70.2l-0.3-1c-0.6,1.1-1.3,2.2-1.9,3.3l0.3,1.1C60.5,72.4,61.1,71.2,61.7,70.2z"/>
	<path class="st4" d="M59.3,74.6L59,73.5c-0.2,0.3-0.3,0.7-0.5,1l0.3,1.1C59,75.3,59.2,74.9,59.3,74.6z"/>
	<path class="st4" d="M62.9,68.4l-0.3-1c-0.2,0.3-0.4,0.6-0.6,0.9l0.3,1C62.5,69,62.7,68.7,62.9,68.4z"/>
	<path class="st4" d="M59.9,73.6l-0.3-1.1c-0.2,0.3-0.4,0.7-0.5,1l0.3,1.1C59.5,74.2,59.7,73.9,59.9,73.6z"/>
	<path class="st4" d="M61.7,70.2c0.2-0.3,0.4-0.6,0.6-0.9l-0.3-1c-0.2,0.3-0.4,0.6-0.6,0.9L61.7,70.2z"/>
	<path class="st4" d="M68.1,61.2c-0.8,0.7-1.6,1.4-2.3,2.2l0.3,0.9c0.7-0.8,1.5-1.5,2.3-2.2L68.1,61.2z"/>
	<path class="st4" d="M65.4,65l-0.3-0.9c-0.2,0.2-0.4,0.5-0.6,0.7l0.3,0.9C65,65.5,65.2,65.2,65.4,65z"/>
	<path class="st4" d="M69.6,61l-0.2-0.8c-0.2,0.2-0.5,0.3-0.7,0.5l0.2,0.8C69.2,61.4,69.4,61.2,69.6,61z"/>
	<path class="st4" d="M66,64.3l-0.3-0.9c-0.2,0.2-0.4,0.4-0.6,0.7l0.3,0.9C65.6,64.7,65.8,64.5,66,64.3z"/>
	<path class="st4" d="M68.3,62.1c0.2-0.2,0.4-0.4,0.7-0.5l-0.2-0.8c-0.2,0.2-0.4,0.3-0.7,0.5L68.3,62.1z"/>
	<path class="st4" d="M100.2,65l0-0.1c-0.1-0.3-0.1-0.6-0.1-0.9c-1.2-0.7-2.4-1.4-3.5-2.1l0.3,1.1C98,63.6,99.1,64.3,100.2,65z"/>
	<path class="st4" d="M89.6,59.3l-0.3-1c-1-0.4-2-0.8-3-1.1l0.3,0.9C87.6,58.5,88.6,58.9,89.6,59.3z"/>
	<path class="st4" d="M64.5,64.8l-0.3-0.9c-0.7,0.8-1.3,1.6-2,2.6l0.3,1C63.2,66.5,63.8,65.6,64.5,64.8z"/>
	<path class="st4" d="M125.7,70.3l0.3,1.1c1.1,0.7,2.2,1.3,3.3,2l-0.3-1.1C127.9,71.6,126.8,70.9,125.7,70.3z"/>
	<path class="st4" d="M24.6,132.5l-2.7-9.2c1.6-2.1,3.1-4.1,4.5-6.2l-0.3-1c-1.6,2.3-3.3,4.6-5.1,7l3.2,10.9
		c10.4-12.3,17.2-23.9,22.4-34.3c-0.2-0.1-0.4-0.3-0.7-0.4C41,109.4,34.5,120.6,24.6,132.5z"/>
	<path class="st4" d="M45.6,81.8l0.2-0.4c7.2-16.2,12.4-27.9,26.7-32c13.9-4,25.8,3.9,41,13.9l0.5,0.3c0.3,0.2,0.7,0.5,1,0.7
		c0.1-0.2,0.2-0.5,0.3-0.7c-0.3-0.2-0.6-0.4-0.9-0.6C99,52.8,86.7,44.6,72.3,48.7c-14.6,4.1-19.9,15.8-27.2,32.4
		c-0.5,1.2-1.1,2.5-1.7,3.7c0.2,0.1,0.5,0.3,0.7,0.4C44.6,84,45.1,82.9,45.6,81.8z"/>
	<path class="st4" d="M154.5,84.9l2.6,8.9c-14.1-3.8-25.9-10-36-16.3c-0.1,0.2-0.2,0.5-0.3,0.7c10.5,6.5,22.6,12.9,37.5,16.6
		l-3.1-10.6c-2.9-0.9-5.7-2-8.4-3.1l0.3,1C149.4,83.2,151.9,84.1,154.5,84.9z"/>
	<path class="st4" d="M136.4,76.4l0.3,1c1,0.5,2.1,1.1,3.2,1.6l-0.3-1C138.5,77.5,137.5,77,136.4,76.4z"/>
	<path class="st4" d="M56.8,78.1c0.6-1.2,1.2-2.4,1.7-3.6l-0.3-1.1c-0.6,1.2-1.2,2.4-1.8,3.6c0.1,0.2,0.2,0.4,0.2,0.6L56.8,78.1z"/>
	<path class="st4" d="M30.4,109.7l0.3,1c0.6-1,1.2-2,1.8-3l-0.3-1C31.7,107.7,31.1,108.7,30.4,109.7z"/>
	<path class="st4" d="M109.3,70.9c0.7,0.5,1.4,0.9,2.1,1.4c0.1-0.2,0.2-0.5,0.3-0.7c-0.7-0.5-1.4-0.9-2-1.3l-0.2-0.1
		c-0.7-0.5-1.4-0.9-2.1-1.4l0.3,1.2C108.3,70.2,108.8,70.6,109.3,70.9z"/>
	<path class="st4" d="M53,86.3l-0.3-1.2c-0.6,1.4-1.3,2.8-1.9,4.3c0.2,0.1,0.4,0.3,0.7,0.4C52,88.7,52.5,87.5,53,86.3z"/>
	<path class="st4" d="M36.3,99.4l0.3,1.1c0.6-1.1,1.2-2.2,1.7-3.3L38.1,96C37.5,97.1,36.9,98.2,36.3,99.4z"/>
	<path class="st4" d="M80,57l-0.2-0.8c-0.9,0-1.8,0-2.7,0.2l0.2,0.8C78.2,57.1,79.1,57,80,57z"/>
	<path class="st4" d="M71.7,58.9l-0.2-0.8c-0.8,0.4-1.6,0.8-2.3,1.3l0.2,0.8C70.1,59.7,70.9,59.3,71.7,58.9z"/>
	<path class="st4" d="M50.1,90.9c-1.1,2.3-2.2,4.7-3.4,7.1c0.2,0.1,0.4,0.3,0.7,0.4c1.2-2.5,2.3-4.8,3.4-7.1
		C50.5,91.2,50.3,91,50.1,90.9z"/>
	<path class="st4" d="M113.1,72.5c-0.1,0.2-0.2,0.5-0.3,0.7c2.1,1.4,4.4,2.9,6.6,4.3c0.1-0.2,0.2-0.5,0.3-0.7
		C117.4,75.3,115.2,73.9,113.1,72.5z"/>
	<path class="st4" d="M118.2,65.6c0-0.1,0-0.1,0-0.2c-0.5-0.3-0.9-0.6-1.4-0.9c-0.1,0.2-0.2,0.5-0.3,0.7c0.7,0.5,1.4,0.9,2.1,1.4
		L118.2,65.6z"/>
	<path class="st4" d="M42.1,88.8l0.1,0.4c0.4-0.9,0.8-1.7,1.2-2.6c-0.2-0.1-0.5-0.3-0.7-0.4c-0.3,0.6-0.6,1.3-0.9,1.9
		C42,88.4,42,88.6,42.1,88.8z"/>
	<path class="st4" d="M115.7,64.8c0.1-0.2,0.2-0.5,0.3-0.7c-0.2-0.1-0.4-0.3-0.7-0.4c-0.1,0.2-0.2,0.5-0.3,0.7
		C115.3,64.5,115.5,64.6,115.7,64.8z"/>
	<path class="st4" d="M44.1,85.2c-0.2-0.1-0.5-0.3-0.7-0.4c-0.1,0.2-0.2,0.5-0.3,0.7c0.2,0.1,0.5,0.3,0.7,0.4
		C43.9,85.7,44,85.5,44.1,85.2z"/>
	<path class="st4" d="M120.4,77.2c-0.1,0.2-0.2,0.5-0.3,0.7c0.2,0.1,0.4,0.3,0.7,0.4c0.1-0.2,0.2-0.5,0.3-0.7
		C120.9,77.4,120.6,77.3,120.4,77.2z"/>
	<path class="st4" d="M51.4,89.9c-0.2-0.1-0.4-0.3-0.7-0.4c-0.1,0.2-0.2,0.5-0.3,0.7c0.2,0.1,0.4,0.3,0.7,0.4
		C51.2,90.3,51.3,90.1,51.4,89.9z"/>
	<path class="st4" d="M112.1,72.7c0.1-0.2,0.2-0.5,0.3-0.7c-0.2-0.1-0.4-0.3-0.7-0.4c-0.1,0.2-0.2,0.5-0.3,0.7
		C111.7,72.4,111.9,72.6,112.1,72.7z"/>
	<path class="st4" d="M46,99.4c0.2,0.1,0.4,0.3,0.7,0.4c0.1-0.2,0.2-0.5,0.4-0.7c-0.2-0.1-0.4-0.3-0.7-0.4
		C46.3,99,46.1,99.2,46,99.4z"/>
	<path class="st4" d="M46.7,98c-0.1,0.2-0.2,0.5-0.4,0.7c0.2,0.1,0.4,0.3,0.7,0.4c0.1-0.2,0.2-0.5,0.4-0.7
		C47.2,98.3,47,98.2,46.7,98z"/>
	<path class="st4" d="M116.4,65.2c0.1-0.2,0.2-0.5,0.3-0.7c-0.2-0.1-0.4-0.3-0.7-0.4c-0.1,0.2-0.2,0.5-0.3,0.7
		C116,64.9,116.2,65.1,116.4,65.2z"/>
	<path class="st4" d="M112.1,72.7c0.2,0.1,0.4,0.3,0.7,0.4c0.1-0.2,0.2-0.5,0.3-0.7c-0.2-0.1-0.4-0.3-0.7-0.4
		C112.3,72.3,112.2,72.5,112.1,72.7z"/>
	<path class="st4" d="M43.4,86.7c0.1-0.2,0.2-0.5,0.3-0.7c-0.2-0.1-0.5-0.3-0.7-0.4c-0.1,0.2-0.2,0.5-0.3,0.7
		C43,86.4,43.2,86.5,43.4,86.7z"/>
	<path class="st4" d="M50.4,90.2c-0.1,0.2-0.2,0.5-0.3,0.7c0.2,0.1,0.4,0.3,0.7,0.4c0.1-0.2,0.2-0.5,0.3-0.7
		C50.9,90.4,50.7,90.3,50.4,90.2z"/>
	<path class="st4" d="M119.7,76.7c-0.1,0.2-0.2,0.5-0.3,0.7c0.2,0.1,0.4,0.3,0.7,0.4c0.1-0.2,0.2-0.5,0.3-0.7
		C120.2,77,120,76.9,119.7,76.7z"/>
	<path class="st4" d="M141.8,79.9c1.1,0.5,2.2,1,3.3,1.5l-0.3-1c-1.1-0.5-2.2-1-3.3-1.5L141.8,79.9z"/>
	<path class="st4" d="M147,82.2l-0.3-1c-0.3-0.1-0.6-0.3-0.9-0.4l0.3,1C146.3,81.9,146.7,82,147,82.2z"/>
	<path class="st4" d="M139.6,78l0.3,1c0.3,0.2,0.6,0.3,1,0.5l-0.3-1C140.2,78.3,139.9,78.2,139.6,78z"/>
	<path class="st4" d="M140.9,79.5c0.3,0.1,0.6,0.3,0.9,0.4l-0.3-1c-0.3-0.1-0.6-0.3-1-0.4L140.9,79.5z"/>
	<path class="st4" d="M145.1,81.4c0.3,0.1,0.6,0.3,0.9,0.4l-0.3-1c-0.3-0.1-0.6-0.3-0.9-0.4L145.1,81.4z"/>
	<path class="st4" d="M131.3,74.5c1.2,0.7,2.3,1.3,3.5,1.9l-0.3-1.1c-1.2-0.6-2.4-1.3-3.5-2L131.3,74.5z"/>
	<path class="st4" d="M135.5,75.9l0.3,1c0.3,0.2,0.6,0.3,1,0.5l-0.3-1C136.1,76.2,135.8,76.1,135.5,75.9z"/>
	<path class="st4" d="M130,72.8c-0.3-0.2-0.7-0.4-1-0.6l0.3,1.1c0.3,0.2,0.7,0.4,1,0.6L130,72.8z"/>
	<path class="st4" d="M134.8,76.4c0.3,0.2,0.6,0.3,1,0.5l-0.3-1c-0.3-0.2-0.6-0.3-1-0.5L134.8,76.4z"/>
	<path class="st4" d="M131,73.4c-0.3-0.2-0.7-0.4-1-0.6l0.3,1.1c0.3,0.2,0.7,0.4,1,0.6L131,73.4z"/>
	<path class="st4" d="M123.4,68.8c-1.1-0.7-2.2-1.4-3.2-2.1l0.3,1.2c0.8,0.5,1.7,1.1,2.5,1.6C123.1,69.3,123.3,69,123.4,68.8z"/>
	<path class="st4" d="M124,70.2l-0.2-0.6c-0.1,0.1-0.1,0.2-0.2,0.4C123.8,70,123.9,70.1,124,70.2z"/>
	<path class="st4" d="M123,69.5c0.2,0.1,0.4,0.3,0.7,0.4c0.1-0.1,0.1-0.2,0.2-0.4l-0.2-0.6c-0.1-0.1-0.2-0.1-0.3-0.2
		C123.3,69,123.1,69.3,123,69.5z"/>
	<path class="st4" d="M124.7,69.7C124.7,69.7,124.7,69.7,124.7,69.7l0.3,1.1c0.3,0.2,0.7,0.4,1,0.6l-0.3-1.1
		C125.4,70.1,125,69.9,124.7,69.7z"/>
	<path class="st4" d="M119.1,66.1c-0.3-0.2-0.7-0.4-1-0.7c0,0.1,0,0.1,0,0.2l0.3,1c0.3,0.2,0.7,0.4,1,0.7L119.1,66.1z"/>
	<path class="st4" d="M124.7,69.7C124.7,69.7,124.7,69.7,124.7,69.7C124.7,69.6,124.7,69.6,124.7,69.7L124.7,69.7z"/>
	<path class="st4" d="M125,70.8l-0.3-1.1c-0.1,0.2-0.2,0.5-0.3,0.7C124.6,70.5,124.8,70.6,125,70.8z"/>
	<path class="st4" d="M120.2,66.7c-0.3-0.2-0.7-0.4-1-0.7l0.3,1.2c0.3,0.2,0.7,0.4,1,0.7L120.2,66.7z"/>
	<path class="st4" d="M124,69.2c-0.1,0.1-0.1,0.2-0.2,0.4l0.2,0.6c0.1,0.1,0.2,0.1,0.3,0.2c0.1-0.2,0.2-0.5,0.3-0.7l0,0
		C124.5,69.5,124.3,69.4,124,69.2z"/>
	<path class="st4" d="M124,69.2c-0.1-0.1-0.2-0.1-0.3-0.2l0.2,0.6C123.9,69.5,124,69.4,124,69.2z"/>
	<path class="st4" d="M105.4,67.4c-1.2-0.8-2.4-1.5-3.5-2.3l0.3,1.1c1.2,0.7,2.3,1.5,3.5,2.3L105.4,67.4z"/>
	<path class="st4" d="M100.2,65c0.3,0.2,0.7,0.4,1,0.6l-0.3-1c0-0.1,0-0.1,0-0.2c-0.3-0.2-0.6-0.3-0.8-0.5c0,0.3,0,0.6,0.1,0.9
		L100.2,65z"/>
	<path class="st4" d="M106.8,69.2c0.3,0.2,0.7,0.4,1,0.7l-0.3-1.2c-0.3-0.2-0.7-0.4-1-0.7L106.8,69.2z"/>
	<path class="st4" d="M101.9,65.1c-0.3-0.2-0.7-0.4-1-0.6c0,0.1,0,0.1,0,0.2l0.3,1c0.3,0.2,0.7,0.4,1,0.6L101.9,65.1z"/>
	<path class="st4" d="M105.8,68.6c0.3,0.2,0.7,0.4,1,0.7l-0.3-1.2c-0.3-0.2-0.7-0.4-1-0.7L105.8,68.6z"/>
	<path class="st4" d="M94.6,60.8c-1.1-0.6-2.3-1.2-3.4-1.7l0.3,1c1.1,0.5,2.2,1.1,3.4,1.7L94.6,60.8z"/>
	<path class="st4" d="M95.9,62.4c0.3,0.2,0.7,0.4,1,0.6l-0.3-1.1c-0.3-0.2-0.7-0.4-1-0.5L95.9,62.4z"/>
	<path class="st4" d="M90.6,59.7l-0.3-1c-0.3-0.1-0.6-0.3-0.9-0.4l0.3,1C89.9,59.5,90.3,59.6,90.6,59.7z"/>
	<path class="st4" d="M94.9,61.9c0.3,0.2,0.6,0.4,1,0.5l-0.3-1.1c-0.3-0.2-0.6-0.4-1-0.5L94.9,61.9z"/>
	<path class="st4" d="M91.2,59.2c-0.3-0.1-0.6-0.3-0.9-0.4l0.3,1c0.3,0.1,0.6,0.3,0.9,0.4L91.2,59.2z"/>
	<path class="st4" d="M84.6,56.8c-1-0.2-2.1-0.4-3.1-0.5l0.2,0.8c1,0.1,2.1,0.3,3.1,0.6L84.6,56.8z"/>
	<path class="st4" d="M80.9,57.1l-0.2-0.8c-0.3,0-0.5,0-0.8,0L80,57C80.3,57.1,80.6,57.1,80.9,57.1z"/>
	<path class="st4" d="M85.7,58c0.3,0.1,0.6,0.2,0.9,0.3l-0.3-0.9c-0.3-0.1-0.6-0.2-0.9-0.3L85.7,58z"/>
	<path class="st4" d="M81.5,56.3c-0.3,0-0.6,0-0.8-0.1l0.2,0.8c0.3,0,0.6,0,0.8,0.1L81.5,56.3z"/>
	<path class="st4" d="M84.8,57.7c0.3,0.1,0.6,0.1,0.9,0.2l-0.3-0.9c-0.3-0.1-0.6-0.2-0.9-0.2L84.8,57.7z"/>
	<path class="st4" d="M75.8,57.5l-0.2-0.8c-0.3,0.1-0.6,0.1-0.9,0.2c-0.6,0.2-1.2,0.4-1.7,0.6l0.2,0.8c0.6-0.2,1.1-0.4,1.7-0.6
		C75.2,57.6,75.5,57.5,75.8,57.5z"/>
	<path class="st4" d="M72.4,58.6l-0.2-0.8c-0.2,0.1-0.5,0.2-0.7,0.3l0.2,0.8C72,58.8,72.2,58.7,72.4,58.6z"/>
	<path class="st4" d="M76.6,57.3c0.3,0,0.5-0.1,0.8-0.1l-0.2-0.8c-0.3,0-0.5,0.1-0.8,0.1L76.6,57.3z"/>
	<path class="st4" d="M72.9,57.5c-0.2,0.1-0.5,0.2-0.7,0.3l0.2,0.8c0.2-0.1,0.5-0.2,0.7-0.3L72.9,57.5z"/>
	<path class="st4" d="M75.8,57.5c0.3-0.1,0.5-0.1,0.8-0.2l-0.2-0.8c-0.3,0-0.5,0.1-0.8,0.2L75.8,57.5z"/>
	<path class="st4" d="M29.3,111.5c-0.6,1-1.3,2-2,3l0.3,1c0.7-1,1.3-2,2-3L29.3,111.5z"/>
	<path class="st4" d="M27,116.3l-0.3-1c-0.2,0.3-0.4,0.6-0.6,0.8l0.3,1C26.7,116.9,26.8,116.6,27,116.3z"/>
	<path class="st4" d="M29.9,110.6l0.3,1c0.2-0.3,0.4-0.6,0.6-0.9l-0.3-1C30.2,110,30.1,110.3,29.9,110.6z"/>
	<path class="st4" d="M29.3,111.5l0.3,1c0.2-0.3,0.4-0.6,0.6-0.9l-0.3-1C29.7,110.9,29.5,111.2,29.3,111.5z"/>
	<path class="st4" d="M27.6,115.5l-0.3-1c-0.2,0.3-0.4,0.6-0.6,0.8l0.3,1C27.2,116,27.4,115.8,27.6,115.5z"/>
	<path class="st4" d="M33.6,105.9c0.7-1.2,1.3-2.3,1.9-3.4l-0.3-1.1c-0.6,1.1-1.3,2.3-1.9,3.5L33.6,105.9z"/>
	<path class="st4" d="M35.8,100.4l0.3,1.1c0.2-0.3,0.4-0.7,0.5-1l-0.3-1.1C36.2,99.7,36,100,35.8,100.4z"/>
	<path class="st4" d="M32.8,105.8c-0.2,0.3-0.4,0.6-0.5,0.9l0.3,1c0.2-0.3,0.4-0.6,0.5-0.9L32.8,105.8z"/>
	<path class="st4" d="M35.6,102.4c0.2-0.3,0.4-0.7,0.5-1l-0.3-1.1c-0.2,0.3-0.4,0.7-0.5,1L35.6,102.4z"/>
	<path class="st4" d="M33.3,104.8c-0.2,0.3-0.4,0.6-0.5,0.9l0.3,1c0.2-0.3,0.4-0.6,0.5-0.9L33.3,104.8z"/>
	<path class="st4" d="M40,93.8c0.4-0.8,0.8-1.6,1.2-2.4l-0.3-1.1c-0.5,1-1,2.1-1.5,3.2C39.6,93.5,39.8,93.7,40,93.8z"/>
	<path class="st4" d="M39.4,95.1c0.1-0.2,0.2-0.4,0.3-0.5c-0.2-0.1-0.3-0.2-0.5-0.3L39.4,95.1z"/>
	<path class="st4" d="M39.2,94.2c0.2,0.1,0.3,0.2,0.5,0.3c0.1-0.2,0.2-0.5,0.3-0.7c-0.2-0.1-0.4-0.3-0.7-0.4
		c-0.1,0.2-0.2,0.4-0.3,0.5L39.2,94.2z"/>
	<path class="st4" d="M38.6,95c-0.2,0.3-0.3,0.7-0.5,1l0.3,1.1c0.2-0.3,0.3-0.7,0.5-1L38.6,95z"/>
	<path class="st4" d="M41.8,88.2c-0.1,0.3-0.3,0.6-0.5,1l0.3,1.1c0.2-0.4,0.3-0.7,0.5-1.1l-0.1-0.4C42,88.6,42,88.4,41.8,88.2z"/>
	<path class="st4" d="M38.7,94.8c0,0.1-0.1,0.1-0.1,0.2l0.3,1.1c0.1-0.3,0.3-0.6,0.4-0.9C39.1,95.1,38.9,95,38.7,94.8z"/>
	<path class="st4" d="M41.2,91.4c0.2-0.4,0.3-0.7,0.5-1.1l-0.3-1.1c-0.2,0.4-0.3,0.7-0.5,1.1L41.2,91.4z"/>
	<path class="st4" d="M39.2,94.2c-0.1,0-0.1-0.1-0.2-0.1c-0.1,0.2-0.2,0.5-0.4,0.7c0.2,0.1,0.5,0.3,0.7,0.4c0-0.1,0.1-0.1,0.1-0.2
		L39.2,94.2z"/>
	<path class="st4" d="M39,94.1c0.1,0,0.1,0.1,0.2,0.1L39.1,94C39.1,94,39,94.1,39,94.1z"/>
	<path class="st4" d="M55.4,79.1c-0.6,1.2-1.2,2.5-1.7,3.8l0.3,1.2c0.6-1.3,1.2-2.6,1.7-3.9L55.4,79.1z"/>
	<path class="st4" d="M56.2,79.2c0.2-0.4,0.3-0.7,0.5-1.1l-0.1-0.5c-0.1-0.2-0.1-0.4-0.2-0.6c-0.2,0.3-0.3,0.7-0.5,1L56.2,79.2z"/>
	<path class="st4" d="M53.5,85.2L53.2,84c-0.1,0.2-0.2,0.3-0.2,0.5c-0.1,0.2-0.2,0.4-0.3,0.6l0.3,1.2C53.2,85.9,53.3,85.6,53.5,85.2
		z"/>
	<path class="st4" d="M54,84.1l-0.3-1.2c-0.2,0.4-0.3,0.7-0.5,1.1l0.3,1.2c0-0.1,0.1-0.2,0.1-0.3C53.8,84.6,53.9,84.4,54,84.1z"/>
	<path class="st4" d="M55.7,80.2c0.2-0.4,0.3-0.7,0.5-1.1L55.9,78c-0.2,0.4-0.3,0.7-0.5,1.1L55.7,80.2z"/>
	<path class="st4" d="M61.4,69.1l-0.3-1c-0.7,1-1.3,2.1-1.9,3.3l0.3,1.1C60.2,71.3,60.8,70.2,61.4,69.1z"/>
	<path class="st4" d="M62,68.2c0.2-0.3,0.4-0.6,0.6-0.9l-0.3-1c-0.2,0.3-0.4,0.6-0.6,0.8L62,68.2z"/>
	<path class="st4" d="M59,73.5l-0.3-1.1c-0.2,0.3-0.3,0.7-0.5,1l0.3,1.1C58.7,74.1,58.8,73.8,59,73.5z"/>
	<path class="st4" d="M61.4,69.1c0.2-0.3,0.4-0.6,0.6-0.9l-0.3-1c-0.2,0.3-0.4,0.6-0.6,0.9L61.4,69.1z"/>
	<path class="st4" d="M59.2,71.4c-0.2,0.3-0.4,0.7-0.5,1l0.3,1.1c0.2-0.3,0.4-0.7,0.5-1L59.2,71.4z"/>
	<path class="st4" d="M67.8,60.4c-0.8,0.6-1.6,1.3-2.3,2.1l0.3,0.9c0.7-0.8,1.5-1.5,2.3-2.2L67.8,60.4z"/>
	<path class="st4" d="M65.1,64.1l-0.3-0.9c-0.2,0.2-0.4,0.5-0.6,0.7l0.3,0.9C64.7,64.5,64.9,64.3,65.1,64.1z"/>
	<path class="st4" d="M68.7,60.7c0.2-0.2,0.4-0.3,0.7-0.5l-0.2-0.8c-0.2,0.2-0.5,0.3-0.7,0.5L68.7,60.7z"/>
	<path class="st4" d="M68.1,61.2c0.2-0.2,0.4-0.3,0.7-0.5l-0.2-0.8c-0.2,0.2-0.5,0.3-0.7,0.5L68.1,61.2z"/>
	<path class="st4" d="M65.5,62.5c-0.2,0.2-0.4,0.4-0.6,0.7l0.3,0.9c0.2-0.2,0.4-0.5,0.6-0.7L65.5,62.5z"/>
</g>
</svg>
