<?xml version="1.0" encoding="utf-8"?>
<!-- Generator: Adobe Illustrator 22.0.1, SVG Export Plug-In . SVG Version: 6.00 Build 0)  -->
<svg version="1.1" id="Layer_1" xmlns="http://www.w3.org/2000/svg" xmlns:xlink="http://www.w3.org/1999/xlink" x="0px" y="0px"
	 viewBox="0 0 423.7 165" style="enable-background:new 0 0 423.7 165;" xml:space="preserve">
<style type="text/css">
	.st0{fill:#FFFFFF;}
</style>
<g>
	<path class="st0" d="M375.1,73.9L375.1,73.9c-4-3.3-7.7-6.8-11.7-10.1c-3.9-3.4-7.8-6.7-11.9-9.9c-4-3.3-8.1-6.4-12.3-9.5
		c-4.2-3.1-8.4-6.1-12.8-8.9c-8.6-5.8-17.7-11-27.1-15.7c-9.4-4.6-19.3-8.5-29.6-11.1c-10.3-2.4-21.2-3.7-32.1-2.3
		c-10.8,1.3-21.5,5.4-30.2,12.1C198.8,25,192.1,33.7,187,43c-4.4,8-7.7,16.5-10.4,25.2c-6.5-5.4-13.1-10.8-20-15.7
		c-8.1-5.7-16.6-11.2-26.2-14.8c-4.8-1.7-9.9-3.1-15.3-2.8c-2.7,0.2-5.4,0.8-7.9,2.1c-2.5,1.3-4.5,3.3-6.1,5.5
		c-3.1,4.4-4.4,9.6-5.2,14.5c-0.5,3.5-0.7,7-0.7,10.5c-1-1.1-1.9-2.2-3-3.2c-2.1-2.1-4.3-4-6.6-5.8c-4.6-3.6-9.6-6.8-15.4-8.5
		c-2.9-0.8-6-1.1-9-0.1c-3,1-5.3,3.3-6.7,5.9c-1.5,2.6-2.3,5.5-2.8,8.3c-0.5,2.9-0.8,5.8-0.9,8.6c0,0.2,0.2,0.4,0.4,0.5
		c0.2,0,0.4-0.2,0.5-0.4c0.2-2.9,0.5-5.7,1.1-8.5c0.6-2.8,1.5-5.5,2.9-7.9c1.4-2.4,3.5-4.3,6-5.1c2.6-0.8,5.4-0.5,8,0.3
		c5.3,1.7,10.1,4.9,14.4,8.5c2.2,1.8,4.2,3.7,6.2,5.8c1,1,1.9,2.1,2.8,3.2c0.4,0.5,0.9,1.1,1.2,1.6c0.4,0.5,0.8,1.2,0.9,1.5l2.7,8
		l0-8.5c0-4.9,0.2-9.7,1.1-14.5c0.8-4.7,2.3-9.3,5-12.9c1.3-1.8,3-3.3,4.9-4.2c1.9-1,4.1-1.5,6.3-1.5c4.5-0.1,9.1,1.2,13.5,2.9
		c8.8,3.6,17,9,24.8,14.8c7.8,5.8,15.2,12.2,22.6,18.7l3.2,2.8l1.3-4.1c3-9.7,6.7-19.1,11.8-27.7c5-8.6,11.4-16.3,19.3-21.9
		c7.9-5.6,17.2-8.9,26.8-9.7c9.6-0.8,19.5,0.4,29,2.9c19.2,4.9,37.6,13.8,55.2,23.9c4.4,2.6,8.8,5.2,13.1,7.9
		c4.3,2.7,8.6,5.5,12.9,8.3l12.8,8.6c4.3,2.9,8.5,5.8,13,8.5c0.2,0.1,0.4,0.1,0.6-0.1C375.3,74.3,375.3,74.1,375.1,73.9z"/>
	<path class="st0" d="M13.9,62.5c15.4,0.5,30.8,0.7,46.2,1.1c17.1,0.3,34.2,0.6,51.4,0.7c17.1,0.2,34.2,0.3,51.4,0.4l51.4,0.1
		l51.4-0.2c17.1-0.2,34.2-0.2,51.4-0.5c17.1-0.2,34.2-0.5,51.4-0.9l25.7-0.7l12.8-0.3l10.1-0.3c1.1,0,2,0,2-0.2
		c0-0.2-0.4-0.1-2.1-0.1l-10-0.2L394,61.1l-25.7-0.6c-17.1-0.3-34.2-0.6-51.4-0.7c-17.1-0.2-34.2-0.3-51.4-0.4l-51.4-0.1l-51.4,0.2
		c-17.1,0.2-34.2,0.3-51.4,0.5c-17.1,0.2-34.2,0.5-51.4,0.9c-15.4,0.4-30.6,0.6-46,1.1c-3.3,0.1-5,0.1-5,0.3
		C9,62.5,10.6,62.5,13.9,62.5z"/>
	<path class="st0" d="M345.7,84.6L345.7,84.6c-10.4-17.5-22.7-34.2-38-48.3c-7.6-7-16-13.4-25.3-18.5c-9.3-5.1-19.5-8.7-30.3-10
		c-10.7-1.2-21.8,0-31.9,3.6c-10.1,3.5-19.4,9-27.6,15.5c-8.2,6.5-15.6,13.9-22.2,21.8c-5.7,6.7-10.9,13.8-15.7,21.2
		c-1.7-2.8-3.5-5.5-5.5-8.2c-2.9-3.8-5.9-7.5-9.3-11c-3.4-3.4-7-6.6-11.1-9.3c-4.1-2.7-8.6-4.9-13.7-5.7c-5-0.9-10.5,0.1-14.9,2.6
		c-4.4,2.5-7.9,6.2-10.7,10.1C85,54.7,81.9,61.8,79.4,69c-0.9-3.7-2.4-7.2-4.3-10.4c-1.5-2.4-3.3-4.6-5.7-6.4
		c-2.3-1.7-5.3-2.8-8.3-2.6c-3,0.2-5.7,1.6-7.9,3.4c-2.2,1.8-4.1,3.8-5.8,6c-3.3,4.4-5.9,9.3-8.2,14.3c-0.1,0.2,0,0.5,0.2,0.6
		c0.2,0.1,0.5,0,0.6-0.2c2.4-4.9,5.1-9.6,8.5-13.8c1.7-2.1,3.5-4.1,5.6-5.6c2.1-1.6,4.5-2.7,7-2.8c2.5-0.2,4.9,0.8,6.9,2.4
		c2,1.6,3.6,3.7,5,5.9c2.6,4.5,4.2,9.8,4.5,14.9l0.3,7.1l2.3-6.8c3-8.7,6.7-17.4,12.1-24.7c2.7-3.6,6-6.8,9.8-8.8
		c3.8-2,8.1-2.6,12.3-1.8c4.2,0.8,8.2,2.8,11.9,5.3c3.7,2.5,7,5.6,10.2,8.9c3.1,3.3,6,6.9,8.6,10.6c2.6,3.7,5.1,7.6,7,11.6l2,4.3
		l2.7-3.9c5.7-8.3,11.7-16.3,18.4-23.8c6.6-7.4,13.9-14.4,21.8-20.2c7.9-5.8,16.6-10.6,25.8-13.4c9.2-2.8,18.8-3.7,28.3-2.4
		c9.5,1.2,18.7,4.3,27.4,8.6c8.7,4.3,16.9,10,24.7,16.2c3.8,3.2,7.6,6.5,11.3,9.9c3.6,3.4,7.2,7,10.6,10.7
		c3.4,3.7,6.8,7.4,10.1,11.3c3.3,3.8,6.5,7.8,9.9,11.6c0.1,0.2,0.4,0.2,0.5,0.1C345.7,85,345.8,84.8,345.7,84.6z"/>
</g>
<g>
	<path class="st0" d="M24.7,117.9l-3.1-8.2h-10l-3.1,8.2H4.3l10.5-27.8h3.6l10.5,27.8H24.7z M20.3,106l-3.5-10.6h-0.1L13.1,106H20.3
		z"/>
	<path class="st0" d="M35.5,117.9h-3.9V90.2h3.9V117.9z"/>
	<path class="st0" d="M44.1,117.9h-3.9V90.2h3.9V117.9z"/>
	<path class="st0" d="M51.6,109.2c1,4,4.2,5.7,6.8,5.7c2.9,0,5-1.7,5.9-3.5h3.9c-2,5.4-6.8,7.1-10,7.1c-5.9,0-10.6-5.1-10.6-11
		c0-6.2,4.8-10.9,10.7-10.9c5.6,0,10.5,4.6,10.6,10.7c0,0.7-0.1,1.7-0.1,2H51.6z M65,106.2c-0.2-3-3-6.1-6.7-6.1
		c-3.8,0-6.5,3-6.7,6.1H65z"/>
	<path class="st0" d="M93.6,115.1c0,6.8-4.2,11-11.3,11c-4.8,0-8.5-2.6-10.2-6.6h4.4c0.6,0.8,2.2,3,5.9,3c4.1,0,7.3-2,7.3-7.4h-0.1
		c-0.7,1-2.8,3.3-7.2,3.3c-6.9,0-11.1-5.9-11.1-11c0-4.6,3.6-10.9,11.2-10.9c3.1,0,5.8,1.4,7.2,3v-2.4h3.9V115.1z M82.5,100.1
		c-4.1,0-7.2,3.5-7.2,7.4c0,3.8,3,7.4,7.2,7.4c5.1,0,7.3-4.7,7.3-7.3C89.7,101.7,84.9,100.1,82.5,100.1z"/>
	<path class="st0" d="M112.8,117.9v-11.3c0-1.6,0-6.5-5.2-6.5c-3.3,0-5.5,2.3-5.5,6.5v11.3h-3.9V90.2h3.9v9.2h0.1
		c1.9-2.8,5-2.8,5.8-2.8c3.2,0,5.9,1.4,7.4,3.7c0.8,1.4,1.3,3,1.3,5.3v12.3H112.8z"/>
	<path class="st0" d="M124.1,109.2c1,4,4.2,5.7,6.8,5.7c2.9,0,5-1.7,5.9-3.5h3.9c-2,5.4-6.8,7.1-10,7.1c-5.9,0-10.6-5.1-10.6-11
		c0-6.2,4.8-10.9,10.7-10.9c5.6,0,10.5,4.6,10.6,10.7c0,0.7-0.1,1.7-0.1,2H124.1z M137.5,106.2c-0.2-3-3-6.1-6.7-6.1
		c-3.8,0-6.5,3-6.7,6.1H137.5z"/>
	<path class="st0" d="M159.5,117.9v-11.3c0-1.6,0-6.5-5.2-6.5c-3.3,0-5.5,2.3-5.5,6.5v11.3h-3.9V97.1h3.6v2.2h0.1
		c2.1-2.8,5.3-2.8,6.1-2.8c3.2,0,5.9,1.4,7.4,3.7c0.8,1.4,1.3,3,1.3,5.3v12.3H159.5z"/>
	<path class="st0" d="M174.6,124.9h-4.1l3-7.4l-8.3-20.4h4.2l6.1,16.1l6.3-16.1h4.2L174.6,124.9z"/>
	<path class="st0" d="M219.7,97.3c-0.8-0.9-3.3-3.9-7.8-3.9c-5.8,0-10.3,4.8-10.3,10.6c0,6,4.8,10.8,10.2,10.8
		c2.9,0,5.7-1.4,7.6-3.7h5c-3.1,5.4-8.3,7.4-12.6,7.4c-7.9,0-14.3-6.6-14.3-14.5c0-8.1,6.5-14.3,14.3-14.3c2.1,0,5.5,0.5,8.5,2.7
		c2.5,1.8,3.6,3.7,4.3,4.9H219.7z"/>
	<path class="st0" d="M237.7,118.5c-7,0-11.2-5.8-11.2-11.1c0-5.7,4.8-10.8,11.2-10.8c6.3,0,11.2,5,11.2,10.9
		C248.9,112.5,244.8,118.5,237.7,118.5z M237.7,100.1c-4.4,0-7.3,3.6-7.3,7.4c0,3.8,3,7.4,7.3,7.4c4.2,0,7.3-3.5,7.3-7.4
		C245,103.8,242.1,100.1,237.7,100.1z"/>
	<path class="st0" d="M267.1,117.9v-11.3c0-1.6,0-6.5-5.2-6.5c-3.3,0-5.5,2.3-5.5,6.5v11.3h-3.9V97.1h3.6v2.2h0.1
		c2.1-2.8,5.3-2.8,6.1-2.8c3.2,0,5.9,1.4,7.4,3.7c0.8,1.4,1.3,3,1.3,5.3v12.3H267.1z"/>
	<path class="st0" d="M275.7,117.9v-17.2h-1.8v-3.6h1.8v-1c0-2.2,0.9-3.8,2.5-4.8c1.7-1,2.8-1.1,5.1-1.1v3.6c-2.6,0-3.6,0.9-3.6,2.4
		v1h3.6v3.6h-3.6v17.2H275.7z"/>
	<path class="st0" d="M288.4,109.2c1,4,4.2,5.7,6.8,5.7c2.9,0,5-1.7,5.9-3.5h3.9c-2,5.4-6.8,7.1-10,7.1c-5.9,0-10.6-5.1-10.6-11
		c0-6.2,4.8-10.9,10.7-10.9c5.6,0,10.5,4.6,10.6,10.7c0,0.7-0.1,1.7-0.1,2H288.4z M301.9,106.2c-0.2-3-3-6.1-6.7-6.1
		c-3.8,0-6.5,3-6.7,6.1H301.9z"/>
	<path class="st0" d="M309.3,117.9V97.1h3.6V99h0.1c1.7-2.3,4.3-2.4,5.3-2.4v4c-0.6,0-1.9,0.3-2.8,0.8c-1.2,0.7-2.3,2.3-2.3,5.2
		v11.4H309.3z"/>
	<path class="st0" d="M323.6,109.2c1,4,4.2,5.7,6.8,5.7c2.9,0,5-1.7,5.9-3.5h3.9c-2,5.4-6.8,7.1-10,7.1c-5.9,0-10.6-5.1-10.6-11
		c0-6.2,4.8-10.9,10.7-10.9c5.6,0,10.5,4.6,10.6,10.7c0,0.7-0.1,1.7-0.1,2H323.6z M337.1,106.2c-0.2-3-3-6.1-6.7-6.1
		c-3.8,0-6.5,3-6.7,6.1H337.1z"/>
	<path class="st0" d="M359,117.9v-11.3c0-1.6,0-6.5-5.2-6.5c-3.3,0-5.5,2.3-5.5,6.5v11.3h-3.9V97.1h3.6v2.2h0.1
		c2.1-2.8,5.3-2.8,6.1-2.8c3.2,0,5.9,1.4,7.4,3.7c0.8,1.4,1.3,3,1.3,5.3v12.3H359z"/>
	<path class="st0" d="M383.1,104.1c-0.6-1.3-2.1-3.9-5.9-3.9c-5,0-6.8,4.2-6.8,7.4c0,3.6,2.3,7.4,6.8,7.4c2.9,0,4.9-1.7,5.9-3.8h4.4
		c-1.6,4.6-5.6,7.4-10.2,7.4c-6.8,0-10.7-5.6-10.7-11c0-5.6,4.1-10.9,10.7-10.9c5.9,0,9.4,4.4,10.2,7.5H383.1z"/>
	<path class="st0" d="M393.6,109.2c1,4,4.2,5.7,6.8,5.7c2.9,0,5-1.7,5.9-3.5h3.9c-2,5.4-6.8,7.1-10,7.1c-5.9,0-10.6-5.1-10.6-11
		c0-6.2,4.8-10.9,10.7-10.9c5.6,0,10.5,4.6,10.6,10.7c0,0.7-0.1,1.7-0.1,2H393.6z M407,106.2c-0.2-3-3-6.1-6.7-6.1
		c-3.8,0-6.5,3-6.7,6.1H407z"/>
	<path class="st0" d="M12.5,150.8c-5.5,0-8.8-4.6-8.8-8.7c0-4.4,3.7-8.5,8.8-8.5c4.9,0,8.8,3.9,8.8,8.5
		C21.3,146.1,18,150.8,12.5,150.8z M12.5,136.4c-3.4,0-5.7,2.9-5.7,5.8c0,2.9,2.3,5.8,5.7,5.8c3.3,0,5.7-2.7,5.7-5.8
		C18.3,139.3,16,136.4,12.5,136.4z"/>
	<path class="st0" d="M35.5,150.3v-8.9c0-1.3,0-5.1-4.1-5.1c-2.6,0-4.3,1.8-4.3,5.1v8.9h-3.1V134H27v1.7H27c1.6-2.2,4.1-2.2,4.8-2.2
		c2.5,0,4.6,1.1,5.8,2.9c0.6,1.1,1,2.4,1,4.2v9.7H35.5z"/>
	<path class="st0" d="M66.6,134.1c-0.6-0.7-2.6-3.1-6.1-3.1c-4.5,0-8.1,3.7-8.1,8.3c0,4.7,3.8,8.4,8,8.4c2.3,0,4.4-1.1,5.9-2.9h3.9
		c-2.4,4.3-6.5,5.8-9.9,5.8c-6.2,0-11.2-5.2-11.2-11.4c0-6.4,5.1-11.2,11.2-11.2c1.6,0,4.3,0.4,6.7,2.1c2,1.4,2.8,2.9,3.4,3.9H66.6z
		"/>
	<path class="st0" d="M80.7,150.8c-5.5,0-8.8-4.6-8.8-8.7c0-4.4,3.7-8.5,8.8-8.5c4.9,0,8.8,3.9,8.8,8.5
		C89.5,146.1,86.3,150.8,80.7,150.8z M80.7,136.4c-3.4,0-5.7,2.9-5.7,5.8c0,2.9,2.3,5.8,5.7,5.8c3.3,0,5.7-2.7,5.7-5.8
		C86.5,139.3,84.2,136.4,80.7,136.4z"/>
	<path class="st0" d="M113.9,150.3v-9.1c0-1.4-0.2-4.9-3.9-4.9c-3.9,0-3.9,3.5-3.9,4.9v9.1h-3.1v-9.1c0-1.4,0-2.3-0.7-3.4
		c-0.8-1.2-1.9-1.5-3-1.5c-4,0-4,3.6-4,4.9v9.1h-3.1V134h2.8v1.8h0.1c0.6-0.7,1.6-2.2,4.7-2.2c2,0,4.2,0.9,5.1,2.7
		c0.5-0.8,1.7-2.7,5.4-2.7c2.7,0,4.7,1.1,5.7,2.9c0.6,1.1,0.9,2.4,0.9,4v9.8H113.9z"/>
	<path class="st0" d="M142.2,150.3v-9.1c0-1.4-0.2-4.9-3.9-4.9c-3.9,0-3.9,3.5-3.9,4.9v9.1h-3.1v-9.1c0-1.4,0-2.3-0.7-3.4
		c-0.8-1.2-1.9-1.5-3-1.5c-4,0-4,3.6-4,4.9v9.1h-3.1V134h2.8v1.8h0.1c0.6-0.7,1.6-2.2,4.7-2.2c2,0,4.2,0.9,5.1,2.7
		c0.5-0.8,1.7-2.7,5.4-2.7c2.7,0,4.7,1.1,5.7,2.9c0.6,1.1,0.9,2.4,0.9,4v9.8H142.2z"/>
	<path class="st0" d="M151.3,134v8.8c0,4,1.8,5.1,4.1,5.1c2.5,0,4.3-1.6,4.3-5.2V134h3.1v16.3h-2.8v-1.8h-0.1
		c-0.8,1.4-2.7,2.2-4.8,2.2c-1.9,0-3.5-0.6-4.6-1.6c-1.4-1.2-2.1-3-2.1-6.3V134H151.3z"/>
	<path class="st0" d="M177.8,150.3v-8.9c0-1.3,0-5.1-4.1-5.1c-2.6,0-4.3,1.8-4.3,5.1v8.9h-3.1V134h2.9v1.7h0.1
		c1.6-2.2,4.1-2.2,4.8-2.2c2.5,0,4.6,1.1,5.8,2.9c0.6,1.1,1,2.4,1,4.2v9.7H177.8z"/>
	<path class="st0" d="M187.5,132.2h-3.1v-3.6h3.1V132.2z M187.5,150.3h-3.1V134h3.1V150.3z"/>
	<path class="st0" d="M194.6,150.3h-3.1v-13.5h-2.2V134h2.2v-5.5h3.1v5.5h2.7v2.8h-2.7V150.3z"/>
	<path class="st0" d="M204.6,155.8h-3.2l2.4-5.8l-6.5-16h3.3l4.8,12.7l4.9-12.7h3.3L204.6,155.8z"/>
	<path class="st0" d="M223.4,128.6h7.1c4.5,0,7.2,1.7,8.9,4c1.6,2.2,2.2,4.8,2.2,6.9c0,2.9-1.1,6.1-2.7,7.7
		c-2.5,2.5-5.4,3.2-8.5,3.2h-6.9V128.6z M226.6,147.4h3.8c3.8,0,8-1.9,8-7.9c0-3.3-2-8-8-8h-3.9V147.4z"/>
	<path class="st0" d="M246.9,143.5c0.8,3.2,3.3,4.4,5.4,4.4c2.3,0,3.9-1.3,4.7-2.7h3.1c-1.6,4.2-5.3,5.5-7.8,5.5
		c-4.6,0-8.3-4-8.3-8.6c0-4.9,3.8-8.6,8.4-8.6c4.4,0,8.3,3.6,8.3,8.4c0,0.5-0.1,1.4-0.1,1.6H246.9z M257.5,141.2
		c-0.1-2.4-2.3-4.8-5.3-4.8c-2.9,0-5.1,2.4-5.3,4.8H257.5z"/>
	<path class="st0" d="M269.8,150.3h-2.1l-6.5-16.3h3.3l4.3,11.7h0.1l4.2-11.7h3.3L269.8,150.3z"/>
	<path class="st0" d="M279.9,143.5c0.8,3.2,3.3,4.4,5.4,4.4c2.3,0,3.9-1.3,4.7-2.7h3.1c-1.6,4.2-5.3,5.5-7.8,5.5
		c-4.6,0-8.3-4-8.3-8.6c0-4.9,3.8-8.6,8.4-8.6c4.4,0,8.3,3.6,8.3,8.4c0,0.5-0.1,1.4-0.1,1.6H279.9z M290.4,141.2
		c-0.1-2.4-2.3-4.8-5.3-4.8c-2.9,0-5.1,2.4-5.3,4.8H290.4z"/>
	<path class="st0" d="M299.3,150.3h-3.1v-21.8h3.1V150.3z"/>
	<path class="st0" d="M310.9,150.8c-5.5,0-8.8-4.6-8.8-8.7c0-4.4,3.7-8.5,8.8-8.5c4.9,0,8.8,3.9,8.8,8.5
		C319.7,146.1,316.4,150.8,310.9,150.8z M310.9,136.4c-3.4,0-5.7,2.9-5.7,5.8c0,2.9,2.3,5.8,5.7,5.8c3.3,0,5.7-2.7,5.7-5.8
		C316.6,139.3,314.3,136.4,310.9,136.4z"/>
	<path class="st0" d="M322.5,134h2.8v2.5h0.1c1.5-2.1,3.7-2.9,5.8-2.9c5.5,0,8.4,4.4,8.4,8.8c0,4.1-3.1,8.4-8.2,8.4
		c-3.4,0-5.1-1.7-5.7-2.8h-0.1v7.8h-3.1V134z M331,136.4c-3.2,0-5.4,2.8-5.4,5.8c0,3.3,2.4,5.8,5.5,5.8c2.9,0,5.5-2.3,5.5-5.7
		C336.6,139.3,334.3,136.4,331,136.4z"/>
	<path class="st0" d="M364,150.3v-9.1c0-1.4-0.2-4.9-3.9-4.9c-3.9,0-3.9,3.5-3.9,4.9v9.1h-3.1v-9.1c0-1.4,0-2.3-0.7-3.4
		c-0.8-1.2-1.9-1.5-3-1.5c-4,0-4,3.6-4,4.9v9.1h-3.1V134h2.8v1.8h0.1c0.6-0.7,1.6-2.2,4.7-2.2c2,0,4.2,0.9,5.1,2.7
		c0.5-0.8,1.7-2.7,5.4-2.7c2.7,0,4.7,1.1,5.7,2.9c0.6,1.1,0.9,2.4,0.9,4v9.8H364z"/>
	<path class="st0" d="M372.9,143.5c0.8,3.2,3.3,4.4,5.4,4.4c2.3,0,3.9-1.3,4.7-2.7h3.1c-1.6,4.2-5.3,5.5-7.8,5.5
		c-4.6,0-8.3-4-8.3-8.6c0-4.9,3.8-8.6,8.4-8.6c4.4,0,8.3,3.6,8.3,8.4c0,0.5-0.1,1.4-0.1,1.6H372.9z M383.5,141.2
		c-0.1-2.4-2.3-4.8-5.3-4.8c-2.9,0-5.1,2.4-5.3,4.8H383.5z"/>
	<path class="st0" d="M400.7,150.3v-8.9c0-1.3,0-5.1-4.1-5.1c-2.6,0-4.3,1.8-4.3,5.1v8.9h-3.1V134h2.9v1.7h0.1
		c1.6-2.2,4.1-2.2,4.8-2.2c2.5,0,4.6,1.1,5.8,2.9c0.6,1.1,1,2.4,1,4.2v9.7H400.7z"/>
	<path class="st0" d="M410.8,150.3h-3.1v-13.5h-2.2V134h2.2v-5.5h3.1v5.5h2.7v2.8h-2.7V150.3z"/>
</g>
</svg>
