<?xml version="1.0" encoding="utf-8"?>
<!-- Generator: Adobe Illustrator 21.1.0, SVG Export Plug-In . SVG Version: 6.00 Build 0)  -->
<svg version="1.1" id="Layer_1" xmlns="http://www.w3.org/2000/svg" xmlns:xlink="http://www.w3.org/1999/xlink" x="0px" y="0px"
	 viewBox="0 0 288 162" style="enable-background:new 0 0 288 162;" xml:space="preserve">
<style type="text/css">
	.st0{fill:#1E252B;}
	.st1{fill:#5C6670;}
</style>
<g>
	<g>
		<path class="st0" d="M147.3,28.8c24.5,0,45.3,15.9,52.7,37.9h3.6c-7.4-24.9-30.5-43.1-57.8-43.1c-27.3,0-50.4,18.2-57.8,43.1h6.7
			C102,44.7,122.8,28.8,147.3,28.8z"/>
		<path class="st0" d="M147.3,139.9c-24.8,0-45.8-16.3-53-38.7H88c7.4,24.9,30.5,43.1,57.8,43.1s50.4-18.2,57.8-43.1h-3.3
			C193.2,123.6,172.2,139.9,147.3,139.9z"/>
		<polygon class="st0" points="46.5,74.4 35.9,93.4 44.1,93.4 45.7,90.5 50.5,90.5 48.2,85.8 50.4,81.6 56.7,93.4 64.8,93.4 
			54.4,74.4 		"/>
		<polygon class="st0" points="93,93.4 93,74.4 83.1,74.4 78.9,83.3 74.7,74.4 64.8,74.4 64.8,93.4 71.6,93.4 71.6,83.8 76.6,93.4 
			81.2,93.4 86.2,83.8 86.2,93.4 		"/>
		<rect x="23" y="74.4" class="st0" width="6.9" height="19"/>
	</g>
	<polyline class="st1" points="205.5,77.5 211.5,77.5 211.5,74.4 196.1,74.4 196.1,77.5 202.1,77.5 	"/>
	<g>
		<path class="st1" d="M258.9,82.4c-3.6-0.9-4.5-1.5-4.5-3v-0.1c0-1.3,1.1-2.3,3.1-2.3c1.7,0,3.5,0.7,5.2,2l1.8-2.5
			c-1.9-1.5-4.1-2.4-6.9-2.4c-3.8,0-6.5,2.3-6.5,5.5v0.1c0,3.5,2.3,4.7,6.3,5.7c3.5,0.8,4.3,1.5,4.3,2.9v0.1c0,1.4-1.3,2.4-3.4,2.4
			c-2.4,0-4.2-0.9-6-2.5l-2,2.4c2.3,2,5,3,7.9,3c4,0,6.8-2.1,6.8-5.7V88C265,84.8,262.9,83.4,258.9,82.4z"/>
		<path class="st1" d="M237.4,90.7c-3.6,0-6.3-3-6.3-6.8v-0.1c0-3.7,2.6-6.7,6.3-6.7c2.2,0,3.8,1,5.3,2.4l2.1-2.5
			c-1.8-1.7-3.9-3-7.4-3c-5.8,0-9.8,4.4-9.8,9.8V84c0,5.5,4.1,9.8,9.7,9.8c3.6,0,5.7-1.3,7.7-3.4l-2.1-2.2
			C241.3,89.7,239.8,90.7,237.4,90.7z"/>
		<rect x="217.5" y="74.4" class="st1" width="3.3" height="19"/>
		<path class="st1" d="M181.7,74.1c-5.8,0-10,4.5-10,9.8V84c0,5.4,4.1,9.8,9.9,9.8s10-4.5,10-9.8v-0.1
			C191.7,78.5,187.6,74.1,181.7,74.1z M188.1,84c0,3.7-2.6,6.7-6.4,6.7c-3.8,0-6.5-3.1-6.5-6.8v-0.1c0-3.7,2.6-6.7,6.4-6.7
			C185.5,77.2,188.1,80.2,188.1,84L188.1,84z"/>
		<path class="st1" d="M162.5,83.5c1.4-0.7,2.7-2,2.7-4.2v-0.1c0-1.3-0.4-2.3-1.3-3.2c-1.1-1.1-2.8-1.7-5-1.7h-8.5v19h8.8
			c4.2,0,7-1.8,7-5.2v-0.1C166.3,85.6,164.7,84.3,162.5,83.5z M153.7,77.4h4.8c2.1,0,3.3,0.9,3.3,2.4v0.1c0,1.7-1.4,2.6-3.6,2.6
			h-4.6V77.4z M162.9,87.9c0,1.7-1.4,2.6-3.7,2.6h-5.5v-5.2h5.3C161.6,85.3,162.9,86.2,162.9,87.9L162.9,87.9z"/>
		<path class="st1" d="M133.7,74.1c-5.8,0-10,4.5-10,9.8V84c0,5.4,4.1,9.8,9.9,9.8s10-4.5,10-9.8v-0.1
			C143.7,78.5,139.6,74.1,133.7,74.1z M140.2,84c0,3.7-2.6,6.7-6.4,6.7c-3.8,0-6.5-3.1-6.5-6.8v-0.1c0-3.7,2.6-6.7,6.4-6.7
			C137.5,77.2,140.2,80.2,140.2,84L140.2,84z"/>
		<path class="st1" d="M118.2,80.5L118.2,80.5c0-1.7-0.6-3.1-1.6-4.2c-1.2-1.2-3.1-1.9-5.5-1.9h-8.5v19h3.3v-6.6h4.1h0.1l4.7,6.6
			h3.9l-5.1-7.2C116.3,85.5,118.2,83.6,118.2,80.5z M106,83.8v-6.4h4.9c2.5,0,3.9,1.1,3.9,3.2v0.1c0,1.9-1.5,3.2-3.9,3.2H106z"/>
		<path class="st1" d="M196.1,77.5h6h0.4c0.3,2.2,0.4,4.5,0.4,6.8c0,0,0,0,0,0.1c0,0,0,0,0,0c0,2.3-0.1,4.6-0.4,6.8
			c-0.1,0.7-0.2,1.5-0.3,2.2h3.3c0.1-0.8,0.2-1.6,0.3-2.3c0.2-1.6,0.3-3.2,0.4-4.8c0-0.8,0-1.6,0-2.4c0-1.1,0-2.2-0.1-3.2
			c-0.1-1.1-0.1-2.1-0.3-3.2h5.7v-3.1h-15.4V77.5z"/>
	</g>
</g>
</svg>
