<?xml version="1.0" encoding="utf-8"?>
<!-- Generator: Adobe Illustrator 23.0.3, SVG Export Plug-In . SVG Version: 6.00 Build 0)  -->
<svg version="1.1" id="Layer_1" xmlns="http://www.w3.org/2000/svg" xmlns:xlink="http://www.w3.org/1999/xlink" x="0px" y="0px"
	 viewBox="0 0 200 200" style="enable-background:new 0 0 200 200;" xml:space="preserve">
<style type="text/css">
	.st0{display:none;fill:#00A651;}
	.st1{fill:#ED1C24;}
</style>
<path class="st0" d="M182.8,107.9L103.7,4.4c-1.8-2.4-5.4-2.4-7.2,0L17.4,107.9c-2.3,3-0.2,7.3,3.6,7.3h31.6c2.5,0,4.5,2,4.5,4.5v73
	c0,2.5,2,4.5,4.5,4.5h76.8c2.5,0,4.5-2,4.5-4.5v-73c0-2.5,2-4.5,4.5-4.5h31.6C182.9,115.3,185.1,110.9,182.8,107.9z"/>
<path class="st1" d="M184.1,92l-79.2,103.7c-1.8,2.4-5.4,2.4-7.2,0L18.5,92c-2.3-3-0.2-7.3,3.6-7.3h31.6c2.5,0,4.6-2,4.6-4.6V6.9
	c0-2.5,2-4.6,4.6-4.6h76.9c2.5,0,4.6,2,4.6,4.6v73.2c0,2.5,2,4.6,4.6,4.6h31.6C184.2,84.6,186.3,89,184.1,92z"/>
</svg>
