<?xml version="1.0" encoding="utf-8"?>
<!-- Generator: Adobe Illustrator 22.1.0, SVG Export Plug-In . SVG Version: 6.00 Build 0)  -->
<svg version="1.1" id="Layer_1" xmlns="http://www.w3.org/2000/svg" xmlns:xlink="http://www.w3.org/1999/xlink" x="0px" y="0px"
	 viewBox="0 0 255 70" style="enable-background:new 0 0 255 70;" xml:space="preserve">
<style type="text/css">
	.st0{fill:#284665;}
</style>
<g>
	<g>
		<g>
			<path class="st0" d="M13,20.4h-2.9V29H1.9V2.1h14.4c6.3,0,9.7,4.2,9.7,9.2c0,4.6-2.7,7.1-4.8,8.2L26,29h-9.3L13,20.4z M15,8.9h-5
				v4.7h5c1.4,0,2.7-0.9,2.7-2.4C17.7,9.8,16.4,8.9,15,8.9z"/>
			<path class="st0" d="M31.5,30.5c1.4,0,2.3-0.2,2.5-0.8l0.2-0.4L26.5,9.5h7.7l3.7,11.1l3.8-11.1h7.7l-8.5,21.9
				c-1.7,4.5-5,5.4-9.1,5.5c-0.5,0-2.1-0.1-2.8-0.3l1-6.5C30.4,30.4,31,30.5,31.5,30.5z"/>
			<path class="st0" d="M60,9c5.7,0,10.1,4.1,10.1,11v1.5H56.9c0.4,1.3,1.8,2.5,4.3,2.5c1.7,0,3.4-0.6,4.4-1.4l3,4.5
				c-1.9,1.7-5.4,2.4-8.3,2.4c-6.1,0-10.9-3.8-10.9-10.3C49.4,13.6,53.7,9,60,9z M56.8,16.9h6.4c-0.2-0.8-0.9-2.3-3.2-2.3
				C57.8,14.6,57.1,16,56.8,16.9z"/>
			<path class="st0" d="M1.9,34.1h12c8.5,0,14.8,4.8,14.8,13.4S22.4,61.1,14,61.1H1.9V34.1z M13.9,54c4.1,0,6.5-3,6.5-6.4
				c0-3.6-2.1-6.3-6.5-6.3h-3.9V54H13.9z"/>
			<path class="st0" d="M40.7,41.1c5.7,0,10.1,4.1,10.1,11v1.5H37.6c0.4,1.3,1.8,2.5,4.3,2.5c1.7,0,3.4-0.6,4.4-1.4l3,4.5
				c-1.9,1.7-5.4,2.4-8.3,2.4c-6.1,0-10.9-3.8-10.9-10.3C30.1,45.6,34.4,41.1,40.7,41.1z M37.6,49H44c-0.2-0.8-0.9-2.3-3.2-2.3
				C38.5,46.6,37.8,48.1,37.6,49z"/>
			<path class="st0" d="M50.8,41.6h7.7l3.7,11.1l3.8-11.1h7.7L66,61.1h-7.7L50.8,41.6z"/>
			<path class="st0" d="M84.3,41.1c5.7,0,10.1,4.1,10.1,11v1.5H81.2c0.4,1.3,1.8,2.5,4.3,2.5c1.7,0,3.4-0.6,4.4-1.4l3,4.5
				c-1.9,1.7-5.4,2.4-8.3,2.4c-6.1,0-10.9-3.8-10.9-10.3C73.7,45.6,78,41.1,84.3,41.1z M81.1,49h6.4c-0.2-0.8-0.9-2.3-3.2-2.3
				C82.1,46.6,81.3,48.1,81.1,49z"/>
			<path class="st0" d="M96.9,34.1h7.3v26.9h-7.3V34.1z"/>
			<path class="st0" d="M106.9,51.3c0-5.5,4-10.2,10.9-10.2c6.9,0,11,4.8,11,10.2c0,5.5-4,10.3-11,10.3
				C110.9,61.6,106.9,56.7,106.9,51.3z M121.4,51.3c0-2.1-1.3-3.8-3.5-3.8c-2.2,0-3.5,1.7-3.5,3.8c0,2.2,1.3,3.8,3.5,3.8
				C120.1,55.1,121.4,53.5,121.4,51.3z"/>
			<path class="st0" d="M131.5,68.5V41.6h7.3v2.1c1.6-1.9,3.5-2.5,5.5-2.5c4.8,0,8.6,3.6,8.6,10.2c0,6.7-3.7,10.3-8.6,10.3
				c-2,0-3.9-0.7-5.5-2.5v9.5H131.5z M141.8,47.5c-0.9,0-2.3,0.5-3,1.3v5c0.6,0.8,2.1,1.3,3,1.3c1.9,0,3.6-1.4,3.6-3.8
				C145.4,48.9,143.7,47.5,141.8,47.5z"/>
			<path class="st0" d="M180.5,49.7c0-1.2-0.6-2.2-2.2-2.2c-1.6,0-2.5,1-3,1.5v12H168V49.7c0-1.2-0.6-2.2-2.2-2.2
				c-1.6,0-2.5,1-2.9,1.5v12h-7.3V41.6h7.3v2.2c0.8-1.1,3.3-2.7,6.5-2.7c2.7,0,4.7,1,5.6,3.4c1.1-1.7,3.7-3.4,6.8-3.4
				c3.6,0,6,1.8,6,5.9v14.1h-7.3V49.7z"/>
			<path class="st0" d="M201.1,41.1c5.7,0,10.1,4.1,10.1,11v1.5H198c0.4,1.3,1.8,2.5,4.3,2.5c1.7,0,3.4-0.6,4.4-1.4l3,4.5
				c-1.9,1.7-5.4,2.4-8.3,2.4c-6.1,0-10.9-3.8-10.9-10.3C190.4,45.6,194.8,41.1,201.1,41.1z M197.9,49h6.4c-0.2-0.8-0.9-2.3-3.2-2.3
				C198.8,46.6,198.1,48.1,197.9,49z"/>
			<path class="st0" d="M226.9,50.3c0-2-1.1-2.8-2.8-2.8c-1.7,0-2.5,0.8-3.1,1.5v12h-7.3V41.6h7.3v2.2c1.1-1.3,3.3-2.7,6.7-2.7
				c4.5,0,6.5,2.7,6.5,6.1v13.9h-7.3V50.3z"/>
			<path class="st0" d="M239.7,55.4v-7.6h-3.2v-6.3h3.2v-5.3h7.3v5.3h4v6.3h-4v5.5c0,1,0.6,1.8,1.6,1.8c0.6,0,1.3-0.2,1.5-0.4
				l1.3,5.5c-0.8,0.7-2.5,1.3-4.9,1.3C242.1,61.6,239.7,59.5,239.7,55.4z"/>
		</g>
	</g>
</g>
</svg>
